<svg xmlns="http://www.w3.org/2000/svg" height="175" width="280"><defs><style>.la{letter-spacing:0;font-size:7px;word-spacing:0;font-family:sans-serif;line-height:125%;fill:red;font-weight:700}</style></defs><path d="M104.77 24.5 9.621 134.67l.758.66L53.41 85.5H79.5v25.57l-19.883 23.61.766.64 19.117-22.7v49.48h1v-50.67l21.84-25.93h38.06l-30.79 39.19.78.62 31.28-39.81h33.58l-25.65 34.2.8.6 45-59.999-.8-.602L176 84.5h-33.54l22.93-29.191-.78-.618L141.19 84.5h-38.01l37.2-44.178-.76-.644L101.87 84.5H54.273l50.957-59H105v-1h-.23zm-24.27 61h20.53L80.5 109.88V85.5zm173-9.264V79.5h-35v9h35v3.263L271.25 84zm1 1.53L268.75 84l-14.25 6.234V87.5h-35v-7h35zm-47 1.734v9h4v-9zm5 0v9h5v-9zm-4 1h2v7h-2zm5 0h3v7h-3z" style="color-rendering:auto;text-decoration-color:#000;color:#000;shape-rendering:auto;solid-color:#000;text-decoration-line:none;fill-rule:evenodd;mix-blend-mode:normal;block-progression:tb;text-indent:0;image-rendering:auto;white-space:normal;text-decoration-style:solid;isolation:auto;text-transform:none"/><text class="la" y="20.808" x="85">1. reflektor</text><text class="la" y="35.788" x="120">2. radiator</text><text class="la" y="50.663" x="145">3. I direktor</text><text class="la" y="55.682" x="191.848">4. II direktor</text></svg>