<svg xmlns="http://www.w3.org/2000/svg" height="620" width="560"><defs><style>.b,.t{letter-spacing:0;word-spacing:0;font-family:sans-serif;line-height:125%;fill:#000}.t{font-size:30px}.b{font-size:32px;font-weight:700}.e{fill:#90d0e1}.o{fill:#dff1f6}</style></defs><path class="e" d="M20 19.94h40v40H20z"/><text class="b" y="94" x="17" transform="translate(10 -42.36)">A</text><path class="e" d="M65 19.94h195v40H65z"/><text class="t" y="93.5" x="63" transform="translate(10 -42.36)">Adam</text><path class="o" d="M20 64.94h40v40H20z"/><text class="b" y="94" x="16.876" transform="translate(10 2.64)">B</text><path class="o" d="M65 64.94h195v40H65z"/><text class="t" y="93.5" x="63" transform="translate(10 2.64)">Barbara</text><path class="e" d="M20 109.94h40v40H20z"/><text class="b" y="94" x="18.154" transform="translate(10 47.64)">C</text><path class="e" d="M65 109.94h195v40H65z"/><text class="t" y="93.5" x="63" transform="translate(10 47.64)">Cezary</text><path class="o" d="M20 154.94h40v40H20z"/><text class="b" y="94" x="17" transform="translate(10 92.64)">D</text><path class="o" d="M65 154.94h195v40H65z"/><text class="t" y="93.5" x="63" transform="translate(10 92.64)">Dorota</text><path class="e" d="M20 199.94h40v40H20z"/><text class="b" y="94" x="18.439" transform="translate(10 137.64)">E</text><path class="e" d="M65 199.94h195v40H65z"/><text class="t" y="93.5" x="63" transform="translate(10 137.64)">Ewa</text><path class="o" d="M20 244.94h40v40H20z"/><text class="b" y="94" x="18.519" transform="translate(10 182.64)">F</text><path class="o" d="M65 244.94h195v40H65z"/><text class="t" y="93.5" x="63" transform="translate(10 182.64)">Franciszek</text><path class="e" d="M20 289.94h40v40H20z"/><text class="b" y="94" x="17" transform="translate(10 227.64)">G</text><path class="e" d="M65 289.94h195v40H65z"/><text class="t" y="93.5" x="63" transform="translate(10 227.64)">Gra&#380;yna</text><path class="o" d="M20 334.94h40v40H20z"/><text class="b" y="94" x="16.392" transform="translate(10 272.64)">H</text><path class="o" d="M65 334.94h195v40H65z"/><text class="t" y="93.5" x="63" transform="translate(10 272.64)">Henryk</text><path class="e" d="M20 379.94h40v40H20z"/><text class="b" y="94" x="24.129" transform="translate(10 317.64)">I</text><path class="e" d="M65 379.94h195v40H65z"/><text class="t" y="93.5" x="63" transform="translate(10 317.64)">Irena</text><path class="o" d="M20 424.94h40v40H20z"/><text class="b" y="94" x="22.002" transform="translate(10 362.64)">J</text><path class="o" d="M65 424.94h195v40H65z"/><text class="t" y="93.5" x="63" transform="translate(10 362.64)">Jadwiga</text><path class="e" d="M20 469.94h40v40H20z"/><text class="b" y="94" x="17" transform="translate(10 407.64)">K</text><path class="e" d="M65 469.94h195v40H65z"/><text class="t" y="93.5" x="63" transform="translate(10 407.64)">Karol</text><path class="o" d="M20 514.94h40v40H20z"/><text class="b" y="94" x="17" transform="translate(10 452.64)">L</text><path class="o" d="M65 514.94h195v40H65z"/><text class="t" y="93.5" x="63" transform="translate(10 452.64)">Ludwik</text><path class="e" d="M20 559.94h40v40H20z"/><text class="b" y="94" x="17" transform="translate(10 497.64)">M</text><path class="e" d="M65 559.94h195v40H65z"/><text class="t" y="93.5" x="63" transform="translate(10 497.64)">Maria</text><path class="e" d="M300 19.94h40v40h-40z"/><text class="b" y="94" x="17" transform="translate(290 -42.36)">N</text><path class="e" d="M345 19.94h195v40H345z"/><text class="t" y="93.5" x="63" transform="translate(290 -42.36)">Natalia</text><path class="o" d="M300 64.94h40v40h-40z"/><text class="b" y="94" x="17" transform="translate(290 2.64)">O</text><path class="o" d="M345 64.94h195v40H345z"/><text class="t" y="93.5" x="63" transform="translate(290 2.64)">Olga</text><path class="e" d="M300 109.94h40v40h-40z"/><text class="b" y="94" x="17" transform="translate(290 47.64)">P</text><path class="e" d="M345 109.94h195v40H345z"/><text class="t" y="93.5" x="63" transform="translate(290 47.64)">Pawe&#322;</text><path class="o" d="M300 154.94h40v40h-40z"/><text class="b" y="94" x="16.186" transform="translate(290 92.64)">Q</text><path class="o" d="M345 154.94h195v40H345z"/><text class="t" y="93.5" x="63" transform="translate(290 92.64)">&quot;K&#322;ebek&quot;</text><path class="e" d="M300 199.94h40v40h-40z"/><text class="b" y="94" x="17" transform="translate(290 137.64)">R</text><path class="e" d="M345 199.94h195v40H345z"/><text class="t" y="93.5" x="63" transform="translate(290 137.64)">Roman</text><path class="o" d="M300 244.94h40v40h-40z"/><text class="b" y="94" x="17" transform="translate(290 182.64)">S</text><path class="o" d="M345 244.94h195v40H345z"/><text class="t" y="93.5" x="63" transform="translate(290 182.64)">Stanis&#322;aw</text><path class="e" d="M300 289.94h40v40h-40z"/><text class="b" y="94" x="18.94" transform="translate(290 227.64)">T</text><path class="e" d="M345 289.94h195v40H345z"/><text class="t" y="93.5" x="63" transform="translate(290 227.64)">Tadeusz</text><path class="o" d="M300 334.94h40v40h-40z"/><text class="b" y="94" x="17" transform="translate(290 272.64)">U</text><path class="o" d="M345 334.94h195v40H345z"/><text class="t" y="93.5" x="63" transform="translate(290 272.64)">Urszula</text><path class="e" d="M300 379.94h40v40h-40z"/><text class="b" y="94" x="19" transform="translate(290 317.64)">V</text><path class="e" d="M345 379.94h195v40H345z"/><text class="t" y="93.5" x="63" transform="translate(290 317.64)">Violetta</text><path class="o" d="M300 424.94h40v40h-40z"/><text class="b" y="94" x="15" transform="translate(290 362.64)">W</text><path class="o" d="M345 424.94h195v40H345z"/><text class="t" y="93.5" x="63" transform="translate(290 362.64)">Wanda</text><path class="e" d="M300 469.94h40v40h-40z"/><text class="b" y="94" x="17" transform="translate(290 407.64)">X</text><path class="e" d="M345 469.94h195v40H345z"/><text class="t" y="93.5" x="63" transform="translate(290 407.64)">Xsawery</text><path class="o" d="M300 514.94h40v40h-40z"/><text class="b" y="94" x="18.027" transform="translate(290 452.64)">Y</text><path class="o" d="M345 514.94h195v40H345z"/><text class="t" y="93.5" x="63" transform="translate(290 452.64)">Ypsylon</text><path class="e" d="M300 559.94h40v40h-40z"/><text class="b" y="94" x="18.646" transform="translate(290 497.64)">Z</text><path class="e" d="M345 559.94h195v40H345z"/><text class="t" y="93.5" x="63" transform="translate(290 497.64)">Zygmunt</text></svg>