<svg xmlns="http://www.w3.org/2000/svg" height="180" width="250"><defs><style>.r{stroke:#000;stroke-width:1px;fill:#fff}.la,.lc{letter-spacing:0;word-spacing:0;font-family:sans-serif;line-height:125%;fill:#000}.la{font-weight:700;font-size:7px}.lc{font-size:5px}.de{letter-spacing:0;font-size:7.5px;fill:red;word-spacing:0;font-family:sans-serif;line-height:125%}</style></defs><g transform="translate(0 45)"><circle cx="15" cy="70" r="8" class="r"/><path class="r" d="M30 60h20v20H30zm0-35h20v20H30zm35 0h20v20H65zm35 0h20v20h-20zm70 0h20v20h-20zm35 0h20v20h-20zm-70 0h20v20h-20z"/><path d="M240 10v24.5h-14.5v1H241V10h-1zM50 34.5v1h13v-1H50zm35 0v1h13v-1H85zm35 0v1h13v-1h-13zm35 0v1h13v-1h-13zM39.5 47v13h1V47h-1zm-33 15v16h1V62h-1zM23 69.5v1h7v-1h-7zm167-35v1h13v-1h-13z" style="color-rendering:auto;text-decoration-color:#000;color:#000;shape-rendering:auto;solid-color:#000;text-decoration-line:none;fill-rule:evenodd;mix-blend-mode:normal;block-progression:tb;text-indent:0;image-rendering:auto;white-space:normal;text-decoration-style:solid;isolation:auto;text-transform:none"/><path d="m238 15.2 2.41-6.56 2.41 6.56c-1.42-1.05-3.37-1.04-4.82 0zM57.8 32.6l6.56 2.41-6.56 2.41c1.05-1.42 1.04-3.37 0-4.82zm35 0 6.56 2.41-6.56 2.41c1.05-1.42 1.04-3.37 0-4.82zm35.2 0 6.56 2.41-6.56 2.41c1.05-1.42 1.04-3.37 0-4.82zm35 0 6.56 2.41-6.56 2.41c1.05-1.42 1.04-3.37 0-4.82zM37.6 52.2l2.41-6.56 2.41 6.56c-1.42-1.05-3.37-1.04-4.82 0zM198 32.6l6.56 2.41-6.56 2.41c1.05-1.42 1.04-3.37 0-4.82z" style="stroke-linejoin:round;fill-rule:evenodd;stroke-width:.375;stroke:#000"/><text y="72.734" x="37.206" class="la">1.</text><text y="37.734" x="37.206" class="la">2.</text><text y="37.734" x="72.206" class="la">3.</text><text y="37.734" x="107.206" class="la">4.</text><text y="37.734" x="142.206" class="la">5.</text><text y="37.734" x="177.206" class="la">6.</text><text y="37.734" x="212.206" class="la">7.</text><text y="20.918" x="32.474" class="lc">8 MHz</text><text y="20.959" x="65.835" class="lc">24 MHz</text><text y="20.959" x="100.844" class="lc">72 MHz</text><text y="20.959" x="134.1" class="lc">144 MHz</text><text y="20.959" x="169.1" class="lc">144 MHz</text><text y="20.959" x="204.1" class="lc">144 MHz</text></g><text y="164.579" x="11.676" class="de">1. modulator</text><text y="17.822" x="12.094" class="de">2. generator kwarcowy modulowany</text><text y="39.355" x="141.899" class="de">6. wzmacniacz mocy (PA)</text><text y="114.229" x="180.715" class="de">7. filtr wyj&#347;ciowy</text><text y="102.954" x="73.422" class="de">I</text><text y="102.954" x="106.84" class="de">II</text><text y="102.954" x="140.258" class="de">III</text><text y="131.481" x="85.887" class="de">powielacz x3</text><path d="m33 156 6.83-34.2m.17-48-8.6-51.3M180 73.3l13-28.4m18 61.1 4.13-19.4" style="stroke:red;stroke-dasharray:1.2,1.2;stroke-width:.3;fill:none"/><path d="m154 104-.315 3.46c-1.14 12.6-32-2.94-41.5 5.35-1.73 1.51-2.05 6.61-2.05 6.61s-.32-5.11-2.05-6.61c-9.51-8.29-40.3 7.21-41.5-5.35L66.27 104" style="stroke-linejoin:round;stroke:red;stroke-linecap:round;stroke-width:.3;fill:none;stroke-dasharray:1.2,1.2"/></svg>