<svg xmlns="http://www.w3.org/2000/svg" height="160" width="160"><defs><style>.ar,.li{fill-rule:evenodd}.li{color-rendering:auto;text-decoration-color:#000;color:#000;shape-rendering:auto;solid-color:#000;text-decoration-line:none;mix-blend-mode:normal;block-progression:tb;text-indent:0;image-rendering:auto;white-space:normal;text-decoration-style:solid;isolation:auto;text-transform:none}.ar{stroke:#000;stroke-linejoin:round;stroke-width:.375}.de,.la{letter-spacing:0;word-spacing:0;font-family:sans-serif;line-height:125%}.la{fill:#000;font-weight:700;font-size:7px}.de{font-size:7.5px;fill:red}</style></defs><path d="M10 65h20v20H10zm35 0h20v20H45zm35 0h20v20H80zm35 0h20v20h-20z" style="stroke-width:1px;fill:#fff;stroke:#000"/><path class="li" d="M150 50v24.5h-14.5v1H151V50h-1zM65 74.5v1h13v-1H65zm35 0v1h13v-1h-13zm-70 0v1h13v-1H30z"/><path class="ar" d="m148 55.2 2.41-6.56 2.41 6.56c-1.42-1.05-3.37-1.04-4.82 0zM72.8 72.6l6.56 2.41-6.56 2.41c1.05-1.42 1.04-3.37 0-4.82zm35.2 0 6.56 2.41-6.56 2.41c1.05-1.42 1.04-3.37 0-4.82zm-70.2 0 6.56 2.41-6.56 2.41c1.05-1.42 1.04-3.37 0-4.82z"/><path class="li" d="M54.5 85v20.5l9 .109v-7.6h-1v6.59l-7-.086v-19.5h-1z"/><path class="ar" d="m60.6 103.2 2.41-6.56 2.41 6.56c-1.42-1.05-3.37-1.04-4.82 0z"/><path class="li" d="M65 81.5v1h6.5v13.7l-9.28-4.64-.445.895 10.7 5.36v-16.3h-7.5z"/><text y="37.734" x="17.206" class="la" transform="translate(0 40)">1.</text><text y="37.734" x="52.206" class="la" transform="translate(0 40)">2.</text><text y="37.734" x="87.206" class="la" transform="translate(0 40)">3.</text><text y="37.734" x="122.206" class="la" transform="translate(0 40)">4.</text><text y="73.411" x="57.074" transform="translate(0 40)" style="font-size:5px;letter-spacing:0;word-spacing:0;font-family:sans-serif;line-height:125%;fill:#000">Klucz</text><text class="de" y="42.858" x="8.666">1. oscylator (VFO)</text><text class="de" y="127.747" x="12.152">2. separator</text><text class="de" y="145.636" x="51.043">3. wzmacniacz mocy (PA)</text><text class="de" y="16.625" x="87.17">4. filtr wyj&#347;ciowy</text><path d="m20.6 68.9 21-21.6M125 68.7l-6-45.8M51.3 81.7 34.1 118M90 81.9l8.07 54.4" style="stroke:red;stroke-dasharray:1.2,1.2;stroke-width:.3;fill:none"/></svg>