<svg xmlns="http://www.w3.org/2000/svg" height="180" width="275"><defs><style>.de,.la{letter-spacing:0;word-spacing:0;font-family:sans-serif;line-height:125%}.la{fill:#000;font-weight:700;font-size:7px}.de{font-size:7.5px;fill:red}</style></defs><path d="M10 70h20v20H10zm35 0h20v20H45zm55 0h20v20h-20zm125 0h20v20h-20zm-125 35h20v20h-20zm90-35h20v20h-20zm-35 0h20v20h-20z" style="stroke-width:1px;fill:#fff;stroke:#000"/><path d="M260 55v24.5h-14.5v1H261V55h-1zM65 79.5v1h33v-1H65zm55-5v1h20v-1h-20zm-90 5v1h13v-1H30zm180 0v1h13v-1h-13zm-35 0v1h13v-1h-13zm-85.5 7v29H98v-1h-7.5v-27h9.5v-1H89.5zm-24.5 0v1h6.5v13.7l-9.28-4.64-.445.895 10.7 5.36v-16.3h-7.5zM54.5 90v20.5l9 .109v-7.6h-1v6.59l-7-.086v-19.5h-1zm72.5-5.5v30h-6.98v1H128v-30h12v-1h-13zm14-10-.336.941 14 5L155 79.5l-14-5z" style="color-rendering:auto;text-decoration-color:#000;color:#000;shape-rendering:auto;solid-color:#000;text-decoration-line:none;fill-rule:evenodd;mix-blend-mode:normal;block-progression:tb;text-indent:0;image-rendering:auto;white-space:normal;text-decoration-style:solid;isolation:auto;text-transform:none"/><path d="m258 60.2 2.41-6.56 2.41 6.56c-1.42-1.05-3.37-1.04-4.82 0zM92.8 77.6l6.56 2.41-6.56 2.41c1.05-1.42 1.04-3.37 0-4.82zm42.2-5 6.56 2.41-6.56 2.41c1.05-1.42 1.04-3.37 0-4.82zm-97.2 5 6.56 2.41-6.56 2.41c1.05-1.42 1.04-3.37 0-4.82zm22.8 30.6 2.41-6.56 2.41 6.56c-1.42-1.05-3.37-1.04-4.82 0zM218 77.6l6.56 2.41-6.56 2.41c1.05-1.42 1.04-3.37 0-4.82zm-35 0 6.56 2.41-6.56 2.41c1.05-1.42 1.04-3.37 0-4.82zm-90.2 35 6.56 2.41-6.56 2.41c1.05-1.42 1.04-3.37 0-4.82zm42.2-30 6.56 2.41-6.56 2.41c1.05-1.42 1.04-3.37 0-4.82z" style="stroke-linejoin:round;fill-rule:evenodd;stroke-width:.375;stroke:#000"/><text y="37.734" x="17.206" class="la" transform="translate(0 45)">1</text><text y="37.734" x="52.206" class="la" transform="translate(0 45)">2</text><text y="37.734" x="107.206" class="la" transform="translate(0 45)">3</text><text y="72.734" x="107.206" class="la" transform="translate(0 45)">4</text><text y="37.734" x="162.206" class="la" transform="translate(0 45)">5</text><text y="37.734" x="197.206" class="la" transform="translate(0 45)">6</text><text y="37.734" x="232.206" class="la" transform="translate(0 45)">7</text><text y="73.411" x="57.074" transform="translate(0 45)" style="font-size:5px;letter-spacing:0;word-spacing:0;font-family:sans-serif;line-height:125%;fill:#000">Klucz</text><text y="20.36" x="7.325" class="de">1. oscylator (VFO)</text><text y="141.705" x="8.506" class="de">2. separator</text><text y="46.218" x="75.043" class="de">3. I powielacz x2</text><text y="164.351" x="74.373" class="de">4. II powielacz x2</text><text y="20.536" x="123.868" class="de">5. wzmacniacz steruj&#261;cy</text><text y="134.701" x="152.584" class="de">6. wzmacniacz mocy (PA)</text><text y="42.482" x="205.581" class="de">7. filtr wyj&#347;ciowy</text><path d="m20.8 74 20.1-48.6M31.3 133l19.4-46.9M203 126l-3-39.9m-90-12.3-2-23.7m0 104.9 1.62-33.5M236 73.6l2.32-25.8M164 73.4l-2-48.9" style="stroke:red;stroke-dasharray:1.2,1.2;stroke-width:.3;fill:none"/></svg>