<svg xmlns="http://www.w3.org/2000/svg" height="180" width="275"><defs><style>.r{stroke:#000;stroke-width:1px;fill:#fff}.la,.lc{letter-spacing:0;word-spacing:0;font-family:sans-serif;line-height:125%;fill:#000}.la{font-weight:700;font-size:7px}.lc{font-size:5px}.de{letter-spacing:0;font-size:7.5px;fill:red;word-spacing:0;font-family:sans-serif;line-height:125%}</style></defs><g transform="translate(0 45)"><circle cx="17" cy="35" r="8" class="r"/><path class="r" d="M80 60h20v20H80zm0-35h20v20H80zm35 0h20v20h-20zm45 0h20v20h-20zm35 0h20v20h-20zm35 0h20v20h-20z"/><path d="M264 10v24.5h-14.5v1H265V10h-1zM100 34.5v1h13v-1h-13zm35-5v1h13v-1h-13zm45 5v1h13v-1h-13zM89.5 47v13h1V47h-1zm-81-20v16h1V27h-1zM25 34.5v1h7v-1h-7zm190 0v1h13v-1h-13zm-80 5v1h13v-1h-13zm14-10-.414.91 11 5 .414-.91-11-5zm-84 5v1h13v-1H65z" style="color-rendering:auto;text-decoration-color:#000;color:#000;shape-rendering:auto;solid-color:#000;text-decoration-line:none;fill-rule:evenodd;mix-blend-mode:normal;block-progression:tb;text-indent:0;image-rendering:auto;white-space:normal;text-decoration-style:solid;isolation:auto;text-transform:none"/><path d="m262.1 15.2 2.41-6.56 2.41 6.56c-1.42-1.05-3.37-1.04-4.82 0zM108 32.6l6.56 2.41-6.56 2.41c1.05-1.42 1.04-3.37 0-4.82zm35-5 6.56 2.41-6.56 2.41c1.05-1.42 1.04-3.37 0-4.82zm45 5 6.56 2.41-6.56 2.41c1.05-1.42 1.04-3.37 0-4.82zM87.6 52.2l2.41-6.56 2.41 6.56c-1.42-1.05-3.37-1.04-4.82 0zM223 32.6l6.56 2.41-6.56 2.41c1.05-1.42 1.04-3.37 0-4.82zm-80 5 6.56 2.41-6.56 2.41c1.05-1.42 1.04-3.37 0-4.82zm-70.2-5 6.56 2.41-6.56 2.41c1.05-1.42 1.04-3.37 0-4.82z" style="stroke-linejoin:round;fill-rule:evenodd;stroke-width:.375;stroke:#000"/><path class="r" d="M30 25h35v20H30z"/><text y="37.734" x="44.706" class="la">1.</text><text y="37.734" x="87.206" class="la">2.</text><text y="37.734" x="122.206" class="la">3.</text><text y="37.734" x="167.206" class="la">4.</text><text y="37.734" x="202.206" class="la">5.</text><text y="37.734" x="237.206" class="la">6.</text><text y="72.734" x="87.206" class="la">7.</text><text y="20.918" x="39.688" class="lc">9 MHz</text><text y="54.916" x="96.377" class="lc">5 - 5,5 MHz</text><text y="20.959" x="108.542" class="lc">3,5 - 14 MHz</text><text y="20.959" x="159.622" class="lc">3,5 MHz</text><text y="20.959" x="194.622" class="lc">3,5 MHz</text><text y="20.959" x="229.919" class="lc">3,5 MHz</text></g><text y="20.36" x="7.325" class="de">1. wzbudnica SSB 9 MHz</text><text y="49.785" x="68.734" class="de">2. mieszacz</text><text y="147.176" x="109.56" class="de">3. filtr pasmowy 3.5 - 14 MHz</text><text y="35.622" x="119.979" class="de">4. wzmacniacz steruj&#261;cy</text><text y="122.515" x="169.501" class="de">5.wzmacniacz mocy (PA)</text><text y="18.316" x="201.374" class="de">6. filtr wyj&#347;ciowy</text><text y="166.79" x="15.78" class="de">7. oscylator (VFO) 5-5.5 MHz</text><path d="M47.9 73.8 38.1 27m33.3 130 18.3-36m48.3 17-13-51.6M90.8 73.6 94.3 53M170 73.8l-5-34.1m56 75.3-16-28.4m34-13-4.41-50.9" style="stroke:red;stroke-dasharray:1.2,1.2;stroke-width:.3;fill:none"/></svg>