<svg xmlns="http://www.w3.org/2000/svg" height="140" width="210"><defs><style>.r{stroke:#000;stroke-width:1px;fill:#fff}.de,.la{letter-spacing:0;word-spacing:0;font-family:sans-serif;line-height:125%}.la{font-size:7px;fill:#000;font-weight:700}.de{font-size:7.5px;fill:red}</style></defs><g transform="translate(0 40)"><circle class="r" r="15" cx="100" cy="35"/><path class="r" d="M35 25h30v20H35zm50 45h30v20H85zm50-45h30v20h-30zm50 5h10v10h-10zm10 0 5-5v20l-5-5"/><path d="M9.5 10v25.5H33v-1H10.5V10h-1zm80.271 14.018-.709.705 10.301 10.371-10.224 10.258.709.707 10.222-10.254 10.13 10.201.71-.703-10.13-10.207 10.25-10.284-.71-.707-10.25 10.28-10.299-10.367zM99.5 52v18h1V52h-1zM65 34.5v1h18v-1H65zm50 0v1h18v-1h-18zm50 0v1h18v-1h-18z" style="color-rendering:auto;text-decoration-color:#000;color:#000;shape-rendering:auto;solid-color:#000;text-decoration-line:none;fill-rule:evenodd;mix-blend-mode:normal;block-progression:tb;text-indent:0;image-rendering:auto;white-space:normal;text-decoration-style:solid;isolation:auto;text-transform:none"/><path d="m27.769 32.58 6.556 2.41-6.556 2.411c1.047-1.423 1.041-3.37 0-4.821zM7.58 15.231l2.41-6.555 2.411 6.555c-1.423-1.047-3.37-1.041-4.821 0zM77.769 32.58l6.556 2.41-6.556 2.411c1.047-1.423 1.041-3.37 0-4.821zm50.001 0 6.556 2.41-6.556 2.411c1.047-1.423 1.041-3.37 0-4.821zm50 0 6.556 2.41-6.556 2.411c1.047-1.423 1.041-3.37 0-4.821zM97.58 57.231l2.41-6.556 2.411 6.556c-1.423-1.047-3.37-1.041-4.821 0z" style="stroke-linejoin:round;fill-rule:evenodd;stroke-width:.375;stroke:#000"/><text class="la" y="37.734" x="47.206">1.</text><text class="la" y="28.236" x="96.652">2.</text><text class="la" y="37.726" x="147.336">3.</text><text class="la" y="82.78" x="97.182">4.</text></g><text y="17.989" x="7.087" class="de">1. filtr wej&#347;ciowy</text><text y="40.382" x="50.687" class="de">2. mieszacz zr&#243;wnowa&#380;ony</text><text y="19.806" x="102.758" class="de">3. wzmacniacz akustyczny</text><text y="122.888" x="140.787" class="de">4. heterodyna</text><path d="M49.6 68.6 26.2 22.3M150 69.1l21-45.4M138 120l-29.8.34M101 56.8l-.058-11.4" style="stroke:red;stroke-dasharray:1.2,1.2;stroke-width:.3;fill:none"/></svg>