<svg xmlns="http://www.w3.org/2000/svg" height="100" width="220"><defs><style>.ar,.li{fill-rule:evenodd}.li{color-rendering:auto;text-decoration-color:#000;color:#000;shape-rendering:auto;solid-color:#000;text-decoration-line:none;mix-blend-mode:normal;block-progression:tb;text-indent:0;image-rendering:auto;white-space:normal;text-decoration-style:solid;isolation:auto;text-transform:none}.ar{stroke-linejoin:round;stroke:#000;stroke-width:.375}.la{letter-spacing:0;font-size:7.5px;word-spacing:0;font-family:sans-serif;line-height:125%;fill:#000;font-weight:700}.r{stroke:#000;stroke-width:1px;fill:#fff;fill-rule:evenodd}.de{letter-spacing:0;font-size:7.5px;fill:red;word-spacing:0;font-family:sans-serif;line-height:125%}</style></defs><path stroke="#000" fill="#fff" d="M40 45h30v20H40z"/><path class="r" d="M90 45h30v20H90z"/><path class="li" d="M14.5 30v25.5H38v-1H15.5V30h-1z"/><path class="ar" d="m32.769 52.58 6.556 2.41-6.556 2.411c1.047-1.423 1.041-3.37 0-4.821zM12.58 35.231l2.41-6.556 2.411 6.556c-1.423-1.047-3.37-1.041-4.821 0z"/><path class="r" d="M140 45h30v20h-30zm60 5 5-5v20l-5-5m-10-10h10v10h-10z"/><path class="li" d="M70 54.5v1h18v-1H70z"/><path class="ar" d="m82.769 52.58 6.556 2.41-6.556 2.411c1.047-1.423 1.041-3.37 0-4.821z"/><path class="li" d="M120 54.5v1h18v-1h-18z"/><path class="ar" d="m132.77 52.58 6.556 2.41-6.556 2.411c1.047-1.423 1.041-3.37 0-4.821z"/><path class="li" d="M170 54.5v1h18v-1h-18z"/><path class="ar" d="m182.77 52.58 6.556 2.41-6.556 2.411c1.047-1.423 1.041-3.37 0-4.821z"/><text class="la" y="37.734" x="52.206" transform="translate(0 20)">1.</text><text class="la" y="37.78" x="102.182" transform="translate(0 20)">2.</text><text class="la" y="37.726" x="152.336" transform="translate(0 20)">3.</text><text y="14.141" x="12.468" class="de">1. wzmacniacz w. cz</text><text y="91.699" x="64.533" class="de">2. detektor z reakcj&#261;</text><text y="15.316" x="112.762" class="de">3. wzmacniacz akustyczny</text><path d="m105 84.1 1.04-23.6M55.1 49.1l-3.7-30.9m103.6 31 9.64-30.1" style="stroke:red;stroke-dasharray:1.2,1.2;stroke-width:.3;fill:none"/></svg>