<svg xmlns="http://www.w3.org/2000/svg" height="160" width="340"><defs><style>.li{color-rendering:auto;text-decoration-color:#000;color:#000;shape-rendering:auto;solid-color:#000;text-decoration-line:none;fill-rule:evenodd;mix-blend-mode:normal;block-progression:tb;text-indent:0;image-rendering:auto;white-space:normal;text-decoration-style:solid;isolation:auto;text-transform:none}.ar,.r{stroke:#000}.ar{stroke-linejoin:round;fill-rule:evenodd;stroke-width:.375}.r{stroke-width:1px;fill:#fff}.de,.la{letter-spacing:0;word-spacing:0;font-family:sans-serif;line-height:125%}.la{font-size:7px;fill:#000;font-weight:700}.de{font-size:7.5px;fill:red}</style></defs><path class="r" d="M35 70h20v20H35zm35 0h20v20H70zm35 0h20v20h-20zm35 0h20v20h-20zm35 0h20v20h-20zM70 105h20v20H70zm140-35h20v20h-20zm35 0h20v20h-20zm35 0h20v20h-20zm-140 35h20v20h-20zm105 0h20v20h-20z"/><path class="li" d="M9.5 55v25.5H35v-1H10.5V55h-1z"/><path class="ar" d="m7.58 60.2 2.41-6.56 2.41 6.56c-1.42-1.05-3.37-1.04-4.82 0z"/><path class="r" d="m325 75 5-5v20l-5-5"/><path class="li" d="M79.5 92v13h1V92h-1z"/><path class="ar" d="m77.6 97.2 2.41-6.56 2.41 6.56c-1.42-1.05-3.37-1.04-4.82 0z"/><path class="li" d="M79.5 92v13h1V92h-1z"/><path class="ar" d="m77.6 97.2 2.41-6.56 2.41 6.56c-1.42-1.05-3.37-1.04-4.82 0z"/><path class="li" d="M55 79.5v1h13v-1H55z"/><path class="ar" d="m62.8 77.6 6.56 2.41-6.56 2.41c1.05-1.42 1.04-3.37 0-4.82z"/><path class="li" d="M90 79.5v1h13v-1H90z"/><path class="ar" d="m97.8 77.6 6.56 2.41-6.56 2.41c1.05-1.42 1.04-3.37 0-4.82z"/><path class="li" d="M125 79.5v1h13v-1h-13z"/><path class="ar" d="m133 77.6 6.56 2.41-6.56 2.41c1.05-1.42 1.04-3.37 0-4.82z"/><path class="li" d="M160 79.5v1h13v-1h-13z"/><path class="ar" d="m168 77.6 6.56 2.41-6.56 2.41c1.05-1.42 1.04-3.37 0-4.82z"/><path class="li" d="M195 79.5v1h13v-1h-13z"/><path class="ar" d="m203 77.6 6.56 2.41-6.56 2.41c1.05-1.42 1.04-3.37 0-4.82z"/><path class="li" d="M230 79.5v1h13v-1h-13z"/><path class="ar" d="m238 77.6 6.56 2.41-6.56 2.41c1.05-1.42 1.04-3.37 0-4.82z"/><path class="li" d="M265 79.5v1h13v-1h-13z"/><path class="ar" d="m273 77.6 6.56 2.41-6.56 2.41c1.05-1.42 1.04-3.37 0-4.82z"/><path class="li" d="M300 79.5v1h13v-1h-13z"/><path class="ar" d="m308 77.6 6.56 2.41-6.56 2.41c1.05-1.42 1.04-3.37 0-4.82z"/><path class="li" d="M150 92v13h1V92h-1z"/><path class="ar" d="m148 97.2 2.41-6.56 2.41 6.56c-1.42-1.05-3.37-1.04-4.82 0z"/><path class="li" d="M254 92v13h1V92h-1z"/><path class="ar" d="m252.1 97.2 2.41-6.56 2.41 6.56c-1.42-1.05-3.37-1.04-4.82 0z"/><path class="r" d="M315 75h10v10h-10z"/><text y="37.734" x="42.206" class="la" transform="translate(0 45)">1.</text><text y="37.734" x="77.206" class="la" transform="translate(0 45)">2.</text><text y="37.734" x="112.206" class="la" transform="translate(0 45)">3.</text><text y="37.734" x="147.206" class="la" transform="translate(0 45)">4.</text><text y="72.734" x="147.206" class="la" transform="translate(0 45)">5.</text><text y="37.734" x="182.206" class="la" transform="translate(0 45)">6.</text><text y="37.734" x="217.206" class="la" transform="translate(0 45)">7.</text><text y="37.734" x="252.206" class="la" transform="translate(0 45)">8.</text><text y="37.734" x="287.206" class="la" transform="translate(0 45)">9.</text><text y="72.734" x="249.386" class="la" transform="translate(0 45)">10.</text><text y="72.734" x="74.54" class="la" transform="translate(0 45)">11.</text><text y="37.883" x="7.389" class="de">1. wzmacniacz w.cz.</text><text y="55.754" x="54.566" class="de">2. I mieszacz</text><text y="12.669" x="47.312" class="de">3. wzmacniacz I po&#347;redniej cz.</text><text y="44.999" x="120.953" class="de">4. II mieszacz</text><text y="154.384" x="107.645" class="de">5. II heterodyna sta&#322;a</text><text y="26.961" x="141.26" class="de">6. filtr prze&#322;&#261;czany II p.cz.</text><text y="139.959" x="166.383" class="de">7. wzmacniacz II po&#347;redniej cz.</text><text y="49.797" x="194.84" class="de">8. detektor AM, CW , SSB</text><text y="12.652" x="230.653" class="de">9. wzmacniacz akustyczny</text><text y="118.036" x="280.975" class="de">10. BFO</text><text y="143.067" x="8.803" class="de">11. heterodyna strojona</text><path d="m44.6 74.3-5-32.7M50.3 135l29.2-14m64.5 25 5-25M79.7 74.9l.7-16.2M150 73.3l-.205-24.6M184 74.3 183 31m-68 43.3-7-55.8m184 56.4 15-57.7M254 74l-6-20.3M210 131l10-44.6m60 28.6-17.8.383" style="stroke:red;stroke-dasharray:1.2,1.2;stroke-width:.3;fill:none"/></svg>