<svg xmlns="http://www.w3.org/2000/svg" height="160" width="310"><defs><style>.ar{stroke:#000;stroke-linejoin:round;fill-rule:evenodd;stroke-width:.375}.de,.la{letter-spacing:0;word-spacing:0;font-family:sans-serif;line-height:125%}.la{font-size:7px;fill:#000;font-weight:700}.de{font-size:7.5px;fill:red}</style></defs><path d="M35 70h20v20H35zm250 5h10v10h-10zM70 70h20v20H70zm70 0h20v20h-20zm70 0h20v20h-20zM70 105h20v20H70zm70 0h20v20h-20zm90 0h20v20h-20zm20-35h20v20h-20zm-75 0h20v20h-20zm-70 0h20v20h-20zm190 5 5-5v20l-5-5" style="stroke-width:1px;fill:#fff;stroke:#000"/><path d="M79.5 92v13h1V92h-1zM55 79.5v1h13v-1H55zm35 0v1h13v-1H90zm35 0v1h13v-1h-13zm35 0v1h13v-1h-13zm70 0v1h18v-1h-18zm40 0v1h13v-1h-13zM150 92v13h1V92h-1zm110-2v24h1V90h-1zm-10 24.5v1h10v-1h-10zM220 92v23.5h10.5v-1H221V92h-1zm-25-12.5v1h13v-1h-13z" style="color-rendering:auto;text-decoration-color:#000;color:#000;shape-rendering:auto;solid-color:#000;text-decoration-line:none;fill-rule:evenodd;mix-blend-mode:normal;block-progression:tb;text-indent:0;image-rendering:auto;white-space:normal;text-decoration-style:solid;isolation:auto;text-transform:none"/><path class="ar" d="M9.5 55v25.5H33v-1H10.5V55h-1z"/><path class="ar" d="m27.8 77.6 6.56 2.41-6.56 2.41c1.05-1.42 1.04-3.37 0-4.82zM7.58 60.2l2.41-6.56 2.41 6.56c-1.42-1.05-3.37-1.04-4.82 0zm70.02 37 2.41-6.56 2.41 6.56c-1.42-1.05-3.37-1.04-4.82 0zM62.8 77.6l6.56 2.41-6.56 2.41c1.05-1.42 1.04-3.37 0-4.82zm35 0 6.56 2.41-6.56 2.41c1.05-1.42 1.04-3.37 0-4.82zm35.2 0 6.56 2.41-6.56 2.41c1.05-1.42 1.04-3.37 0-4.82zm35 0 6.56 2.41-6.56 2.41c1.05-1.42 1.04-3.37 0-4.82zm75 0 6.56 2.41-6.56 2.41c1.05-1.42 1.04-3.37 0-4.82zm35 0 6.56 2.41-6.56 2.41c1.05-1.42 1.04-3.37 0-4.82zM148 97.2l2.41-6.56 2.41 6.56c-1.42-1.05-3.37-1.04-4.82 0zm114.6 11.6-2.41 6.56-2.41-6.56c1.42 1.05 3.37 1.04 4.82 0zM218 97.2l2.41-6.56 2.41 6.56c-1.42-1.05-3.37-1.04-4.82 0zm-15-19.6 6.56 2.41-6.56 2.41c1.05-1.42 1.04-3.37 0-4.82z"/><text y="37.734" x="42.206" class="la" transform="translate(0 45)">1.</text><text y="37.734" x="77.206" class="la" transform="translate(0 45)">2.</text><text y="37.734" x="112.206" class="la" transform="translate(0 45)">3.</text><text y="37.734" x="147.206" class="la" transform="translate(0 45)">4.</text><text y="37.734" x="182.206" class="la" transform="translate(0 45)">5.</text><text y="37.734" x="217.206" class="la" transform="translate(0 45)">6.</text><text y="37.734" x="257.206" class="la" transform="translate(0 45)">7.</text><text y="72.734" x="237.334" class="la" transform="translate(0 45)">8.</text><text y="72.734" x="147.206" class="la" transform="translate(0 45)">9.</text><text y="72.734" x="74.54" class="la" transform="translate(0 45)">10.</text><text y="37.883" x="7.389" class="de">1. wzmacniacz w.cz.</text><text y="55.754" x="54.566" class="de">2. I mieszacz</text><text y="12.669" x="47.312" class="de">3. wzmacniacz I po&#347;redniej cz. 10,7 MHz</text><text y="44.999" x="120.953" class="de">4. II mieszacz</text><text y="26.673" x="165.218" class="de">5. wzmacniacz II p.cz. 455 kHz</text><text y="56.539" x="191.496" class="de">6. detektor FM</text><text y="41.715" x="204.943" class="de">7. wzmacniacz akustyczny</text><text y="150.365" x="225.266" class="de">8. blokada szum&#243;w</text><text y="151.498" x="122.077" class="de">9. II heterodyna sta&#322;a</text><text y="143.067" x="8.803" class="de">10. I heterodyna kwarcowa</text><path d="m44.6 74.3-5-32.7M50.3 135l29.2-14m73.5 22-3.63-22.1m-69.67-46 .7-16.2M150 73.3l-.205-24.6M184 74.3 183 31m-68 43.3-7-55.8m152 55.8 11-27.7m-51 27.1 2.7-13.6M249 142l-7.97-20.4" style="stroke:red;stroke-dasharray:1.2,1.2;stroke-width:.3;fill:none"/></svg>