<svg xmlns="http://www.w3.org/2000/svg" height="160" width="240"><defs><style>.li{color-rendering:auto;text-decoration-color:#000;color:#000;shape-rendering:auto;solid-color:#000;text-decoration-line:none;fill-rule:evenodd;mix-blend-mode:normal;block-progression:tb;text-indent:0;image-rendering:auto;white-space:normal;text-decoration-style:solid;isolation:auto;text-transform:none}.ar,.r{stroke:#000}.ar{stroke-linejoin:round;fill-rule:evenodd;stroke-width:.375}.r{stroke-width:1px;fill:#fff}.lb{font-weight:700}.de,.la{letter-spacing:0;word-spacing:0;font-family:sans-serif;line-height:125%}.la{font-size:7px;fill:#000}.de{font-size:7.5px;fill:red}</style></defs><path class="li" d="M9.5 65v25.5H33v-1H10.5V65h-1z"/><path class="ar" d="m27.8 87.6 6.56 2.41-6.56 2.41c1.05-1.42 1.04-3.37 0-4.82zM7.58 70.2l2.41-6.56 2.41 6.56c-1.42-1.05-3.37-1.04-4.82 0z"/><path class="r" d="m225 85 5-5v20l-5-5m-10-10h10v10h-10z"/><path class="li" d="M195 89.5v1h18v-1h-18z"/><path class="ar" d="m208 87.6 6.56 2.41-6.56 2.41c1.05-1.42 1.04-3.37 0-4.82z"/><path class="r" d="M35 80h20v20H35zm35 0h20v20H70zm35 0h20v20h-20zm35 0h20v20h-20zm35 0h20v20h-20zM70 115h20v20H70z"/><path class="li" d="M79.5 102v13h1v-13h-1z"/><path class="ar" d="m77.6 107.2 2.41-6.56 2.41 6.56c-1.42-1.05-3.37-1.04-4.82 0z"/><path class="li" d="M114 65v13h1V65h-1z"/><path class="ar" d="m117 72.8-2.41 6.56-2.41-6.56c1.42 1.05 3.37 1.04 4.82 0z"/><path class="li" d="M79.5 64.5V78h1V65.5H150v-1H79.5z"/><path class="ar" d="m82.4 72.8-2.41 6.56-2.41-6.56c1.42 1.05 3.37 1.04 4.82 0z"/><path class="li" d="M55 89.5v1h13v-1H55z"/><path class="ar" d="m62.8 87.6 6.56 2.41-6.56 2.41c1.05-1.42 1.04-3.37 0-4.82z"/><path class="li" d="M90 89.5v1h13v-1H90z"/><path class="ar" d="m97.8 87.6 6.56 2.41-6.56 2.41c1.05-1.42 1.04-3.37 0-4.82z"/><path class="li" d="M125 89.5v1h13v-1h-13z"/><path class="ar" d="m133 87.6 6.56 2.41-6.56 2.41c1.05-1.42 1.04-3.37 0-4.82z"/><path class="li" d="M160 89.5v1h13v-1h-13z"/><path class="ar" d="m168 87.6 6.56 2.41-6.56 2.41c1.05-1.42 1.04-3.37 0-4.82z"/><path class="li" d="M150 66v14h1V66h-1z"/><path class="ar" d="m148 71.2 2.41-6.56 2.41 6.56c-1.42-1.05-3.37-1.04-4.82 0z"/><text y="47.734" x="42.206" class="la lb" transform="translate(0 45)">1.</text><text y="47.734" x="77.206" class="la lb" transform="translate(0 45)">2.</text><text y="47.734" x="112.206" class="la lb" transform="translate(0 45)">3.</text><text y="47.734" x="147.206" class="la lb" transform="translate(0 45)">4.</text><text y="47.734" x="182.206" class="la lb" transform="translate(0 45)">5.</text><text y="82.734" x="77.206" class="la lb" transform="translate(0 45)">6.</text><text y="12" x="2.902" class="la" transform="translate(0 45)">ANT</text><text y="12" x="108.948" class="la" transform="translate(0 45)">ARW</text><text y="13.84" x="6.51" class="de">1. filtr wej&#347;ciowy</text><text y="47.544" x="49.581" class="de">2. mieszacz</text><text y="136.785" x="119.543" class="de">3. wzmacniacz po&#347;redniej cz.</text><text y="40.308" x="127.111" class="de">4. detektor AM</text><text y="17.583" x="133.844" class="de">5. wzmacniacz akustyczny</text><text y="151.57" x="8.217" class="de">6. heterodyna</text><path d="m44.6 84-8.5-66.4M35.3 143l38.3-18m77.4 2-35-31.2M76.5 84.6l-5.8-33.8M154 86.2l4.78-42.5M184 84.6l14.6-62.4" style="stroke:red;stroke-dasharray:1.2,1.2;stroke-width:.3;fill:none"/></svg>