<svg width="2031" height="1932" xmlns="http://www.w3.org/2000/svg" version="1"><defs><style>.lb,.lw{letter-spacing:0;word-spacing:0;font-family:sans-serif;line-height:125%;fill:#000}.lw{font-style:italic;font-size:50px}.lb{font-size:212px;font-weight:700}</style></defs><path d="M537 95.7c-45 16.3-33 69.3-49 103 32.7 53-3.95 107 14.5 161 23.5 38.1-49 88 20.7 91.2 44.8 11.9 90.8 21.2 137 12.7 45.6 22.5 73.2-41.2 119-22.7 68.4 4.25 136 19.3 205 18.1 34.2-25.9 54.2-59.3 64.2-96.8 72.8 85.3 153 165 229 248 98.2 104 197 207 303 302 43.4 16.4-16.1-45.2-23.7-59.9-136-181-285-351-438-518-21.7-44.4-103-53-83.2-107-1.83-13-41.1-43 10.6-46.9 27 2.61 82.2-73.9 30.1-39.5-55 18.7-132 38.1-181 7.18-12.7-40.1-34.5-76.2-41.2-116 25.1 1.02 78.1 51.9 74.3 45.1 26-34.9-82-76.9-133-70.2-59 11.7-119 20.6-174 43.4-30 13.6-52 43.7-86 45.5z" stroke-linejoin="round" stroke="#fff" stroke-width="12" fill="#f95"/><path d="M146 255c25.9-6.6-4.11 19.5 4 32-35.5-.632-25.2 49.8-45.4 61.2-5.38 9.62 12.3 45.4-.596 33.4-5.32-15.1-22.6-16.2-33.9-24.5-8.17-8.22-15.8-25-18.6-3.52-4.79 23.8 3.09 59.4 12 85.7.885 29.7 16.5 59.4-4.53 84.4 7.6 32.1-19.8 57.4-45.5 70.6-1.71 20-19.3 44 9.05 52.7 21.4 16.9 32 49.2 55.7 60.2 21.3.778 42.6 1.56 64 2.33-3.56.347-23.5 41.4 4.25 27.3 12.8-19.9-10.4-66.6 20.2-68.5 23.2-3.39 51.6-23.3 76.2-16.6 21.8-.358 24.4-40.8 51.4-30.1 25.2 15.4 46.6-18.9 50.3-37.4 6.65-12.9 28.5-15.2 10.3 1.4-24.6 27.1 25.1 12.7 35.6 21.4 24.1-7.26 55.5 2.98 76.9-9.66 15.3-12.4-13.1-67.9 19.9-41.9 16.2 7.73 39.7-18 28-28.8-9.2-23.2 39.1-28.5 6.93-38.2-16.8 2.21-57.3-20.2-32.3-32.6 24.2 9.88 80.9 15.6 49.8-23.8-8.23-25 29.6-24.5 17-49.6-2.42-10.2-4.66-19.3 4.81-26.8 10.5-6.02-27.2-28.1 2.9-31.7 29.1-11.5-19.2-24.9-13.2-43.8-16.9 26.1-10.7-14.5-8.47-26.2-5.78-24.6-34.1-57.9 6.87-64 1.74-13.4-10.7-21.1-2.56-37.8 14.5 3.38 1.2-11.3 3.83-20.5 4.5-13.5-14.2-11.8-12.4-25.1-5.53-21.8-45-5.27-56.8 7.36-23 26.5-39.8 61.8-75.2 74.2-23.5 5.91-48.9 1.51-71.5 12.4-22.8 11-48.4 9.13-72.1 16.4-35.9 13.4-72.1 26.5-110 34.6l-3.77 1.71-3.41 2.14z" stroke-linejoin="round" stroke="#fff" stroke-width="12" fill="#f55"/><path d="M1690 145c-17.3 28.6-97.3 41.9-46.4 84.1-1.13 30.7 27.4 90.1-14.1 116-17.6 37.4-62.1 52-95.2 74.4-19.5 29.8-81.1-1.14-72.2 53-12.2 45.5 7.13 93.7-9.59 138-5.07 55 60.6 21.8 75.2 67.1 79.7 103 89.4 240 88.5 366-1.71 126-22.6 252-65 371-41.8 50.6-46.3-32.9-42-62.9.194-186 36.3-370 60.4-555 5.11-27.9 11.3-94 45.8-51.1-24 12.2-105 37.3-58.5 71.6 51.6 17.9 106 22.3 161 16.1 23.5 57.8 101-1.04 111-42.7 12.6-58.4 84.8-51.9 112-96.9 15.9-52.5-14.2-106-10.3-160-59.1-80.9-79.2-181-101-276 14.9-54.1-46.8-81.3-86.3-97-14.3-12.7-33.4-29.9-53.1-16.8z" stroke-linejoin="round" stroke="#fff" stroke-width="12" fill="#ff80e5"/><path d="M1120 141c-16.4 19.5-33.7 33.1-57.4 39.8-10.8 8-32.9 49.3-19.3 16.7-9.36-6.13-32.9-.808-17.9 17.2-2.67 15.9-27.7 39-4.93 56.1 4.89 9.06 29.4 16.8 23.1 31.1 13.7-1.55 45.3-6.46 24.6 15.7-7.44 13.5-5.64 49.8-24.5 27.3-28.1-4.78-12 27.4-30.7 36.1-7.45 24-28.6 35-14.9 62.3.967 29.4 1.54 53.5 35.5 56.8 15.4 24.5 62 .32 55.6 40.4 5.37 20-20.7 45.5 14.2 42.8 32.3-7.68 63.7-3.82 96.3.258 26.6 1.44 52.9-6.84 67.1-27 28.7.774 41.2-36.8 70.9-41.2 27.7-8.69 50.1-38.7 82.5-27.8 24.9 6.78 41.6-30.6 69.1-30.8 20.1-2.58 47.1 11.5 55.6-13.9 29.1 1.94 50.9-33.8 74.5-51.9 12.8-6.08 23.5-5.66 21.7-22.7 27.7-4.6 45.5-34.2 52-61.1 10-30.7-36.4-53-32-82.7-27.2-13.3-22.1-45.5 9.45-46.7 20.4 3.87 40.1-37.7 11.5-25.9-38.1 8.74-77.8 3.41-116 10.3-62.8 7.61-126 17.2-189 8.68-75.7-6.39-152-9.95-227-21.4-9.94-2.29-19.7-5.32-29.5-8.2z" stroke-linejoin="round" stroke="#fff" stroke-width="12" fill="#ff80e5"/><path d="M140 257a7.883 7.883 0 0 0-2.74.58c-3.72 1.53-5.94 5.78-10 6.41-9.83 1.52-20.5-.425-30 4.54-16 8.42-19.2 24.8-39 13.9l-1 18 2.82 12.5 12-1.62-2 11 39.9-14.1 3.32 15.3c1.21-8.04 5.53-20.1 9.97-27 3.07-4.75 7.74-7.68 10-13 3.81-8.94 2.87-21.6 15-23v-2c-2.73-.463-5.5-1.58-8.24-1.47z" stroke-linejoin="round" stroke="#fff" stroke-width="12" fill="#f55"/><path d="M788 359c4.52 35.9-45.7-9.97-38.5 23.2-19.4 4.94-25.6 20.9-18.9 32.4-24.6-1.34-27.5 13.4-51.6-1.51-18.2-11.8-18 57-49.8 43.8-7.76 20.6-15.6 43.8 10.5 53.4 9.87 27.7-39.1 29.6-14.6 55.6 17 38.6-24.2 45.1-51 37.6 14.4 26.1 62.6 33 71.9 67.8-18.1 22-13.7 40 9.34 54.8 17 12.3 39.1 15.8 48.4 42 17.5 19.2 51.3-9.77 55.6 28 19.3 15 48 13.2 54.6 33.9 35.4 8.4 83-5.14 107 29.5 15 8.99 39.6-30.5 58.6-7.76 31.7-.87 57-21 61.8-46.3 20.5-13.9 8.66-41.9 27.9-63.4 29.2-31.3-5.37-69.8 14.1-99.2 37.6.149 15.3-40.5 27.4-63.5-12.7-26.5.682-73.9-40-75.1-24.9-4.06-37.8-26.1-59.7-33 6.83-42.4-31.8-65.9-68.9-52.1-35.9 4.33-7.94-44.8-42.9-30-34.4 9.36-68-4.12-99.1-23.7-4.64-.925-8.77-3.48-12.2-6.61z" stroke-linejoin="round" stroke="#fff" stroke-width="12" fill="#f95"/><path d="M546 403c-21.6 25.3-39.4 59.9-76.5 54.6-6.84 36.1 77.3 30.7 30.6 63-20.1 13.7-56.7 21.5-56 59.4-19.5 7.44-51.5 12.5-76.7 9.29-14.3 19.5 4.29 57.6-37 55.5-2.91 31.2-47.1 58.7-34.8 99 7.42 10.6 20 41.9 12.1 34.5-37.2 6.51 1.26 59.5-10.4 85-4.79 25.8 4.05 66.8 12.6 77.1-36 22.8 13.3 33.3 33.8 37 13.4 3.54 26.7 7.08 40.1 10.6 15.1-38.7 32.3 49 53.3 7.64 7.05 31.7 56.2 41.6 47.7 75.9 27 24.4 53.4 74.9 97 51.4 26.1 12.1 18.1-37.8 52.1-32.4 30.6-.872 28.1 26.7 16.9 43.4-6.33 35 78.4 24.1 24.9 21.7-7.29 30.4 19.2 48.8 41.6 53.9-11.3 27.5 17.3 52 52.5 54.2 39.7 11.5 11-40.2 44.4-43.6 29.1-26.9-44.3-45.1 2.92-45.6 7.83-19.2 20.2-34 39.5-18.9 24.5-18.1-9.34-76.5.58-84.4-13 30.4 28.4-53.6 11.7-33.2 19-13.3 81.3.086 72.2-46.9-21.7-41.7 19.2-56.5 46.4-74.2-21.9-29.5 20.2-28.9 31.6-40.7-19.6-15.2-47.2-36.9-65.3-51.4-47.5 43.2-52.8-60.3-103-31-9.08-15.9-13.5-22.4-30.9-5.03-23.5 9.91-42.1-34.5-55.4-28.4-15.3-15.8-43.5-46.6-65.2-19.6-3.58-23.6-15.7-31.3-36.9-24.7-3.6-17.8-23.5-26.2 4-37.3 13.3-31.7-17.6-50.3-42.1-64 25.5-23.9 2.04-51.8 17.2-74.2 48.9-12.2-46.9-57 7.01-79.2 9.55-37.4-53.6-18.4-75.1-27.9-13-7.17-5.55-39.5-27.1-30.7z" stroke-linejoin="round" stroke="#fff" stroke-width="12" fill="#aad400"/><path d="M1440 466c-28.7 25.6-86.4 12.8-114 45.7-27.4-2.56-42.1 33.4-73.6 26.6-11.7 20-10.1 39.1-40.8 33.3-27.4 4.06-60.8-7.33-77.2-15.6-13.4 24.3-66 22.4-37.4 63.8 6.3 29.9-30.4-8.18-35.6 23.7-19.1 4.28 16.7 35-12.5 34.1 7.66 17.2 32.1 39.3 4.8 43.9-9.91 7.3-22.9 57.1-6.24 37-15 35.7-25.9 67.2-24.8 108 23.5 7.48 20.9 40.6 55.3 29.1 49.9-17 79.1 30.7 99.1 67.6 24.1 37.5 66 19.6 95.6 34.8-41.3 29 22.3 36 23.5 47.3-24.8-21-79.6 1.14-48.9 33.7-24.5 21.2 12.4 52.5 18.2 49.3-32.2 12.5-23.7 61.7 3.74 59.3-2.18 30.1 1.22 47.2 30.4 57.2 21 36 61.6 27 91.5 43.2 36.2-5.12 77.4 58.3 108 4.05 25.3-26.1 99.1 13.3 94.9-35.4-22.7-45.7 34-65 53.4-97.8 10.7-31.9-51.6-25.5-48.9-63.6 1.24-25.5-66.1-25.7-21-38 15.8.842 34-14.7 15.4-27.7 36.6-5.06-4.27-39.3 7.54-60.8-12.8-40.5 30.7 23 51.2-6.98 32.3-16.1 65.1-23.5 96.8-34.6 23 5.5 56.9-59.6 56.1-51.7-16.6-11.1 16.4-34.8-15-40.1-29.6-32.7-86.9-4.96-112-44.2-18.7-34.6-35.4-74.9-35.4-109-22.6 19.8-34.4-9.9-24.8-27.1-24.7-.104-71.9 22.4-60.1-24-8.53-16.7-29.3-21.2-13.6-38.9-38.8-7.8-61.8-38.4-60.7-78.4 17.5-5.41-.501-33.7-9.19-48.8-11.2-3.8-22 5.13-33.5 1.18z" stroke-linejoin="round" stroke="#fff" stroke-width="12" fill="#ffd42a"/><path d="m1910 498 1 1-1-1zM350 557c-14.6 25.9-31.6 61.8-65 33-34.5 9.32-51.8 16.8-55.9 37.6-29.1 35.2-72.1-6.52-71.5 13.5-24.7 25.5-30.2 77.5-78.7 61.1 44.6 34.4-43.3 105 21.8 138 5.05 51.6 8.98 99.5-21 145 14.8 32.1 27.5 61.8 17.8 92.2 35.3 14.3 46.5 37.2 51.1 70.2 19.4-52.9 65.5 45.7 82.8-23.9 22.4-54.4-.016 52 42.3 7.26 56.5-21.3 64.9-86.7 102-130 10.6 33.5-18 67.7 33.7 61.1 64.7 33 48.7-129-1.97-96.8-20.1 4.3-26.8-11.7-21.3-33.1-37.6 12.5-30.4-34.7-52.6-45.5-18.9-32.8 30.3-72.8-6.22-100-13.5-19.9 30.3 7.74 2.21-31.7-10.2-32-14.6-69.6 28.3-68-2.74-25.1.582-31.8 10.5-47.7-7.05-28 12.4-64.9-.761-79.1l-17.2-2.07z" stroke-linejoin="round" stroke="#fff" stroke-width="12" fill="#aad400"/><path d="M1030 821c-8.4 28.2-55.9 5.54-51 41 21.5-5.37 10.7 32.9-5.99 17.1-34 .285 3.21 50.1-33.6 43.6-5.89 8.82-28.6-.394-23.9 21.9 4.69 21.5 16.9 43.2-7.91 58.3-12.6 16.8-55-13.7-51.3 23.6-2.73 25-22.4 41.5-13.2 68.9 5.89 18.3-5.1 59.3-28.6 35.9-15.7 1.62-14.4 28.8-34.6 29.6 1.96 6.87 2.14 34 17.2 25 3.09 23.8-.98 63.5 32.6 65 24 13.2 47.7 27.4 76.6 29.6 13.4 11.4 20.5-29.6 27.5-.923 3.13 10.3 42.1 28.7 15.5 16-9.29-2.95-44.6-17.1-15.3-16.5 12.1 6.44 18.5-18.5 29.1 1.57 13.7 12.9 37.6 34.2 51.6 11.1 14.6-6.09 13.8 19.5 29.3 23 8.49 11.8 14.4 43.5 31.4 21.1 19.8-1.35 39.3 34.2 58.9 7.76 2.8-19.8 21.6-34.3 23.5-51.2 16.9 23.4 67.8-1.2 76.3.19-18-7.27-5.75-53.3 18.5-43.5 14.6 4.01 28.5-9.09 6.73-11.5-16.2-1.5-2.41-11.5-5.43-22.4 10.3-4.45 26.4 9.84 9.75 2.49.812-20.9 4.91-43.9 5.46-63.2 11.5-10.2 34.5-42 4.5-37.4 2.63-21.7-22.7-40.8-14.1-59.6 16.4-8.39 71 18 56.2-22.4-12.3-7.38-15.8-27.7-4.9-34.7-15-14.3-34.8-22.3-52.3-29.6-13.7 13.7-25 4.11-38.4.104 12.5-15.7.782-22.7-9.06-30.6 9.09-12.8 19.9-29.8-4.51-30.7-21.5-3.77-24.7-30.1-32.7-39.4-12-8.4-25.8-28.3-37.7-8.33-28.1 12.1-54.8 4-74.9-15.5-12.4-5.43-29.2-9.49-31.2-25.6z" stroke-linejoin="round" stroke="#fff" stroke-width="12" fill="#00d4aa"/><path d="M1800 835c-4.3 13.6-31.3 29.3-12 42-22.2-14.5-30.5 33.3-26.6 21.5-17.7 27.3-62.7-18.3-62.3 25-14.9-9.02-30.2-11.6-33.8 8.95-16.1 9.59-18.6-14.3-32.2-.411-23 1.61-51-.418-71.2 19.3-7.24 9.95 5.26 42.8-1.49 45.1 28-.074 10.7 30.3-6.35 32.2 27.2 19.8-21.9 58.6-40.1 36.2-22 13 16.5 30.4 31.6 31.2 14.1 16.8 11.1 43.4-7.58 52 14.4 7.62 15.4 19.2 7.75 31.7 17.2 9.45-16.8 35 1.47 52.8-5.73 34.9-1.95 70.3 6.74 104 18.5 37.2 70.8-19 76.7 27.7-8.33 15.2-26.2 34.4 1.03 39.8 16.7 3.83 24.1 20.2 27.2 30.7 10.8-7.88 20.5-27 21.9-3.09 3.13 20-36.9 2.29-29.7 19.6-13.7 8.47-24.4-1.88-23.5 12.8-25.4 12.8 27.4 15.8 33.7 30.7 9.85 17.9 57.9-8.09 46.8 13.9-14.6 9.43 30.1 11.1 40.6 10.2 27.8-7.92 65.5 14.7 82.2-18.4 1.75-15.5-15.4 16 5.87 11.2 13.8-3.07 23-17.4 29.3 5.01 7.26 9.55.487 14.7 15.2-.081 10.9-8.33 31 7.25 44.1-11.1 21.6-19.1 28.8-59.2 64.6-55.8 40.1.976 40.9-47.4 37.1-76.3 12.6-27.3-37.3-38.5-16.1-65.3 22-4.02 19.1-16.2.515-23.7-23.7-19.1-23.6-55.3-42.5-79.3-16.9-17.8-31.5-43.1-45.7-59.5 9.56-28.3 2.72-56.1-22.3-72.1-19.4-33.8 4.51-68.1 2.1-99.7.735-26.8 27.3-78.6-16.7-86.8-15.4-28.5-56.7-23.2-73-35.8-.84-7.48-4.64-16.1-13.4-16.4z" stroke-linejoin="round" stroke="#fff" stroke-width="12" fill="#87aade"/><path d="M362 1000c-27.3 8.3-44.7 35.4-44.3 64-10.1 8.85-28.4 1.23-26.7 22.2-8.23 17.9-24.7 24.7-30.4 1.71-11.2-13-45.5-11.3-33.6 12.1-13.7 4.13-13.9 29.7-29.4 7.61-20.1-6.67-47.9 19.1-53.7 35.5 24.8 30.3-10.4 60-12.2 92.7-.157 24.3-25.9 38.2-28.3 58.1 12 15.1 45.2 13.5 35.7-11.1 9.99-13.9-.69-23.6 22-25.7 19.1 12.3 46.1-7.65 38.8 29.5 2.52 11.2 15.4 36.1 24.9 40.8 27-3.98 46.6 28.6 73.3 17.6 14.5 9.36 15.5 37 36 29.6 2.56 28.3 12.3 14.6 25.2 3.44 8.61 1.43 27 15.8 23.6-3.25 41-9.98 60.1 59.4 12.1 60.2-28.4 14.6-2.87 44.5 12.2 53.2 12.9 26.5 41.8 43.5 43.5 75 20.8 28.9 47.5-.948 59.3-19 13.2-4.59 24.8-14.6 34.5-5.34 12.6-30.8-33.7-38.5-22.8-70.2-.509-30.4 42.2-3.12 35.7-26.1 17.5-8.15 34.5-42.5 64.5-30.1 7.23-24.8-1.06-55.6 29.6-63.7-2.39-15.1 13.8-26 9.79-41.6 19.9 3.29 15-18.9 32.3-23-14.5 6.31-19 9.2-7.51-6.21-.597-15.9-2.11-34.3 22-23.6 12.6.385 8.51-19.9 13.3-29 7.43-19.1-14.2-35-9.54-55.9-3.39-16 7.05-32.8-16.1-27.2-24.9 9.89-40.2-29.6-20.5-39.9 4.06-30.2-65.9-52.7-71.1-19.7-22.4 16.2-71.1 15-87-17.8-10.1-14-39-10.6-24.4-35.7-6.51-17.1-34.4-32.8-51-30-5.72 14-29.5 62-42.6 31.7 8.31-17-13.4-3.64-3.14-21.1-9.88-10.7-25.7-15.3-34.6-21.4-6.57 1.37-4.26 9.67.763 11.5z" stroke-linejoin="round" stroke="#fff" stroke-width="12" fill="#59f"/><path d="M1260 1170c-25.9 1.52 3.17 41.7-25.2 28.7-21.9-6.28 1.78 19.7-20.7 18.2-14.5 7.37-47.1-6.96-43.6 18.5-12 12.4 1.41 27.9 10.2 28.6 2.86 19.9-14.7 42.5-25.1 14.6-28.2-17.9-12.6 34.8-31 44.2-7.57 9.18-3.36 29.9-22.7 27.6-6.65 11.2-35.7 21.1-13.9 33.7 13.7 2.09 32.6 4.69 22.4 20.6 5.89 6.49 18.9-2.19 8.98 11.3-17.5 10.5-30.3 37.7-2.1 43.2 20-4.53 46.7-13.9 46.6 16 19.1 7.92 47.8.758 50 30.1 10.1 5.58 5.76 28.5 2.27 18.8 16.5 2.16 5.76 25.9 20.3 30.4-9.17 8.39 24.7 21.2 35.5 11.9 24.4-4.91 51.5-7.41 70-25.8 25.5-9.24 49-21.4 72.3-35.2 21.4-20.4 54-10.9 75.2-29.2 15.4-20.1 30.4-41 36.9-65.7 6.76-22.8 45.1 7.09 47.1-20.7-18.6-19-8.99-46.4-18.2-68.8-12-18.6-4.05-57.3-17.2-66.4-7.85 20.4-26.4-14.8-41.8.921-16.2 4.24-32.6 26.8-47.5 2.82-7.09-18.8-48.3 8.93-47.1-21.2-17.6 1.36-1.71-38.6-15.8-16.4-5.17 23.3-21.2-8.13-35.2 6.43-10.7 5.17-23.4.793-29.5-4.34 3.6-25.1-22-19.8-36.1-21.5-7.53-12.4-4.94-33.2-25-31.5z" stroke-linejoin="round" stroke="#fff" stroke-width="12" fill="#00d4aa"/><path d="M683 1220c-5.02 7.97-17.6 10.9-7.63 21.6-1.19 15.8-22.9 26.5-13.8 43.2-10.8-.296-1.37 7.14-13.6 5.58-9.11 8.4-6.95 21.4-21.6 16.3-6.82 7.54 9.95 18.8-6.12 25.6-9.47 7.71 9.5 25.7-11.9 21.3-14.9 1.77-1.41 21.1-12.6 29.1 8.64 5.79.365 14.4-1.45 22.4-1.67 7.83-12.5 1.64-18.4 2.94-15.5-2.07-12 24.8-20.5 33.9-.253 18.8-21.9-1.58-22.3 17.6 4.64 23 36.8 20.2 51.5 34.8 5.69 17.9 36.3 13.9 32.7 35.5 9.14-5.94 18.8-12.5 17 4.5 14.5-8.09 34.8 1.98 50.2-9.26 20.6-19.2 17.7 20.3 11.5 31.6-9.73 9.18-43.2 7.5-21.9 26.3 10.3 6.23 27.5 4.6 26.1 21.3 8 18 28.9 34.5 45 16.8 9.34 1.76 23.9-3.38 10.5-12.1 7.48-9.29 28-15.3 19.4-29.6 20.9-7.71 45.6-3.95 64-18.8 2.54-14.9 24.3 5.92 20.7-11.2-5.6-14.3-11.1-30.3-8.43-43.4-7.54-16.5 17.7-25.4 28-17.8-5.86-12-12.3-35.3 10.6-26.1 17.1-5.59 35.7-33.9 24.1-50.4-16.5-9.25-29.9-33-8.91-44.9-4.38-7.66-29.3-4.35-17.2-21.1 15.2-11.4 20.9-30.7 18-49.2 4.8-13.5 6.13-24.3-9.38-32.1-12.2-3.27-20.7-22.5-26-23.8-4.26 10.7-9.22 12.7-15.2 3.46-15.6-7.02-34-4.12-48.4-12.9-19.4-5.4-32.7 6.17-49 13.6-13.1 4.92-39.7-.415-25-18.8-6.6-19.4-31.2 8.53-45-2l-2.58-1.74-2.58-2.35z" stroke-linejoin="round" stroke="#fff" stroke-width="12" fill="#59f"/><path d="M946 1240c-6.88 21.2-46.4-2.44-51.1 27.8-8.32 25.3-8.36 50.9-27.9 71.6-5.25 13.4 13.8 21.7-4.79 27.9-16.5 22 28.5 34.3 18.7 55.2-9.05 3.46-46.9.286-28.5 21.2 14.1 20.1-26.7-3.08-16.2 17.3-6.65 24.9-1.97 49.6 5.61 73.7-9.34 7.92-17.7-4.58-26.3 9.76-12.6 9.66-17.4 20.8-35.1 17.2-5.51 7.03-19.8-5.24-15.1 12.9-7.01 22.1 9.56 43.1 30.9 45.6 12.4 26 43.6 8.33 61.8 25.5 24.5-14.9 9.29 26.3 16 38.9-3.71 31.5 37.5 31.4 48.9 50.8 3.41 19.6 2.84 48.3 28.9 48.6 5.86 17.2 4.25 43.6 28.4 31.2 30.4 8.39 25.7-35.1 49.4-40.6 19.9-22.2 46.1-35.3 74-44.7 8.96-5.65 41.2-12.8 34.7-17.5-25.2-3.1-3.42-17.1-6.39-29.2-15.5-8.6-42.1-7.16-39.5-30-20 1.12-26.8-11-19.6-28.7 5.22-22-30.5-.847-14.7-23.3 10.7-31.4-28 28.8-14-4.24 6.18-22 44.6-27.9 40.3-52.8-11.5-9.41 26.9-16.9 27.8-33.9-1.41-27.7 37.5-12.3 55.9-23.5 7.52-.618-29.4 3.31-11.6-12.7.608-11.2 26.3-4.36 8.04-15.4-8.29-17.8-56-17-29.5-40 9.91-8.32 20.2-18.7 1.98-21.2 13.6-28.5-40.1-3.97-30.3-33.3 12-4.95 23.5-16.5 24.3-27-16.5-8.61-32.1-1.3-41.7-19.3-14-10-33.3 12.3-30.3-12.5-8.31-18.1-25.8-31.8-38-42.3-14.8 23.1-40.7 5.89-56.8-8.48-5.38-5.6-12.3-9.58-18.3-14.5z" stroke-linejoin="round" stroke="#fff" stroke-width="12" fill="#d38d5f"/><path d="M1560 1340c-5.18 20-.5 51.4-26.2 51.8-8.28 27.4-29.7 43.3-53.5 55.9-23.3 22.6-51.8 40.8-72 67.2-14.7 27.3 4.64 56 5.54 84.9-22.2 18.9 13.2 30.4 20.7 37.1-7.33 22.2-61.2 3.51-44 34.7 21.7 9.36 46.6 20.4 55.5 47.7-3 18.6-1.31 41.9 19.5 54.3-.232 27.8 23.4 35.3 46.2 25.6 17.9-3.68 40.7 2.65 45.3 22.8 30.6-23.6 54.7 23.6 65.3 46.6 18.1 5.27 37.9 11.5 52 17 21.5 8.77 41.9 18.3 64.3 21.5 17.8 11 37.1 10.2 54.6 16.7 14.1-21.5-19.6-48.3-32.2-53.2 2.97-36 1.65-73.3-14.8-106-4.74-28.7 24.9-49.9 39.2-73.2 13.1-21.1 23.3-44.2 39.8-63.2 15.3-17.2 24.1-38.9 37.9-56.8 14.4-20.2 61.7-53.9 30.1-75.7-21.1 5.58-5.16-20.4-23.2-19.5-1.57-23-21.5 13.1-33-4.56-20.1-1.07-20.7 38.7-48.2 31-20.7-8.43-64.6 12.8-69-14.8 27.7-16.9-27.1 5.31-37.3-10.2-21.2-7.67-.485-33.2 13-26.9 16.3-4.75 7.92-17.9-1.42-19.6 8.64-32-33.8-25.5-51.1-39.4-30-5.3-8.75-26.6-10.4-44.4-20.1-35.2-49.6 13.7-72.6-7.16z" stroke-linejoin="round" stroke="#fff" stroke-width="12" fill="#87aade"/><path d="M1160 1460c-20 5.25-36.7 12.7-59 12.8-16 5.7-36.9-3.75-35.4 21.5-3.69 17.5-48.8 25.4-16.2 38 10.9 9.03-16.9 17-16.3 27.9-21.1 7.58-23.9 30.6-36 45.3-7.02 12.3-17 37.1 4.73 31.3 10.8 12.5-9.62 42.6 17 37.5 15 3.55 4.14 26.3 24.6 24.9 19.5-1.19 28.1 16.2 12.5 28.2 24 8.67 19.6 36.8 31 56.6 5.8 19.1 25.7 33.7 44 29 3.13 16.9 17.1 37 3.57 49.7-7.29 27.2 21 10.1 33.6 8.28 16.6-1.69 39 27.8 34.8-2.3 5.08-24.3 25.8-41.7 49.6-37.9-5.22-12.3-1.17-20.5 14.8-18.6 16.2-12.6 30.6 19.3 46.6-.376 16-6.7 32-6.94 36.2 13.4 19.3 18 46 16.4 58.8-8.14-.522-10.3.137-25.7 17.7-17.4 16.3 7.78 25-15.1 44.3-5.66 14.9-1.25-2.9-19.8 10.7-23.4-15.7-5.03-13.4-25.9-19.2-34.6 7.48-19.8 1.97-51.6-21-57.8-29.2.674-28.6-36.6.372-36.5 24.4-16-29.6-10.4-19.1-34.5 6.66-14.6.99-27.1 6.19-42.3-11.7-8.19-4.61-38.4-3.08-56.7 13.4-9.69 5.25-21.4-8.51-11-22.2 11-48.1 11.1-71.1 20.6-14.1 14.6-33.5 17.2-51.5 25.3-14.1 1.11-52.1 15.2-42.3-10.1-14.7-8.12-2.84-23.8-21.3-30.9 3.89-8.58 14.8-16.9 2.31-27.8-6.94-21.9-23.9-30.6-46.5-26.6-10.5-7.94-49.9-19-27.1 12.3z" stroke-linejoin="round" stroke="#fff" stroke-width="12" fill="#d38d5f"/><text class="lw" y="974.971" x="124.706" transform="translate(5.85 2.64)">lubuskie</text><text class="lw" y="932.138" x="503.594" transform="translate(5.85 2.64)">wielkopolskie</text><text class="lw" y="458.864" x="110.177" transform="translate(5.85 2.64)">zachodnio-</text><text class="lw" y="521.364" x="110.177" transform="translate(5.85 2.64)">pomorskie</text><text class="lw" y="259.334" x="633.338" transform="translate(5.85 2.64)">pomorskie</text><text class="lw" y="303.367" x="1177.181" transform="translate(5.85 2.64)">warmi&#324;sko-</text><text class="lw" y="365.867" x="1177.181" transform="translate(5.85 2.64)">mazurskie</text><text class="lw" y="551.139" x="1624.697" transform="translate(5.85 2.64)">podlaskie</text><text class="lw" y="719.971" x="1183.987" transform="translate(5.85 2.64)">mazowieckie</text><text class="lw" y="574.073" x="728.842" transform="translate(5.85 2.64)">kujawsko-</text><text class="lw" y="636.573" x="728.842" transform="translate(5.85 2.64)">pomorskie</text><text class="lw" y="1181.253" x="197.588" transform="translate(5.85 2.64)">dolno&#347;l&#261;skie</text><text class="lw" y="1416.605" x="620.677" transform="translate(5.85 2.64)">opolskie</text><text class="lw" y="1491.429" x="874.623" transform="translate(5.85 2.64)">&#347;l&#261;skie</text><text class="lw" y="1712.546" x="1103.364" transform="translate(5.85 2.64)">ma&#322;opolskie</text><text class="lw" y="1608.027" x="1462.318" transform="translate(5.85 2.64)">podkarpackie</text><text class="lw" y="1229.277" x="1657.944" transform="translate(5.85 2.64)">lubelskie</text><text class="lw" y="1028.648" x="959.964" transform="translate(5.85 2.64)">&#322;&#243;dzkie</text><text class="lw" y="1366.852" x="1149.713" transform="translate(5.85 2.64)">&#347;wi&#281;tokrzyskie</text><text class="lb" y="404.33" x="325.858">1</text><text class="lb" y="468.913" x="768.917">2</text><text class="lb" y="826.814" x="444.571">3</text><text class="lb" y="457.477" x="1538.917">4</text><text class="lb" y="937.567" x="1325.323">5</text><text class="lb" y="1360.53" x="477.477">6</text><text class="lb" y="1267.592" x="1075.942">7</text><text class="lb" y="1501.725" x="1663.335">8</text><text class="lb" y="1650.388" x="1019.127">9</text><text class="lb" y="1781.446" x="33.693"><tspan x="33.693" y="1781.446" font-size="150">SP SQ</tspan><tspan x="33.693" y="1891.164" font-size="80">SN SO SR HF 3Z</tspan></text></svg>