<svg xmlns="http://www.w3.org/2000/svg" height="122" width="420" xmlns:xlink="http://www.w3.org/1999/xlink"><defs><path id="d" class="p" d="M230 637q-27 0-32 1t-5 11q0 27 11 33 2 1 174 1 172-1 186-3 56-8 94-28t54-46 21-43 6-34q0-45-29-84t-67-60-67-34-38-13l7-5q67-38 67-110 0-11-5-61t-5-82v-9q0-18 1-28t11-18 26-9q28 0 46 22t26 47q5 14 8 17t15 3q20 0 20-12 0-18-24-57-38-57-90-57h-9q-61 0-101 25t-44 78q0 27 15 84t15 73q0 51-43 74-15 7-25 8t-71 2h-69l-32-130Q244 61 244 59q0-4 1-5t7-4 17-2 33-2h31q6-8 6-9t-3-18q-4-13-10-19h-15q-36 2-131 2H71Q54 2 50 1q-17 0-17 9 0 2 3 14 5 19 10 21 4 1 15 1h6q27 0 60 3 14 3 19 12 3 4 72 278t69 289q0 7-57 9zm400-83q0 32-21 54t-86 28h-23q-21 0-38 1h-22q-47 0-54-10-1-3-34-133t-33-133q0-1 69-1 78 1 104 7 64 10 100 59 16 23 27 60t11 68z"/><path id="h" class="p" d="M56 347q0 13 14 20h637q15-8 15-20 0-11-14-19l-318-1H72q-16 5-16 20zm0-194q0 15 16 20h636q14-10 14-20 0-13-15-20H70q-14 7-14 20z"/><path id="b" class="p" d="M107 637q-34 0-36 4-1 2-1 8 0 24 11 33 2 1 17 1 41-2 136-2h63q29 0 45 1t20 0q16 0 16-10 0-2-2-14-5-17-10-20h-14q-4 0-9-1t-9 0q-39-1-50-3t-18-11q-1-2-28-105t-54-216-30-133q-2-14-2-29 0-54 31-85t86-31q67 0 134 45t98 136l51 201q47 192 47 200 0 27-64 31-24 0-24 11 0 2 2 12 4 16 6 19t10 4q3 0 32-1t84-2q51 0 78 1t29 1q15 0 15-10 0-22-8-30-3-5-22-5-71-4-89-40-2-5-50-193-41-169-50-199-33-100-115-163T263-22q-92 0-147 56T60 167v16q0 18 55 238 49 201 49 207 0 7-57 9z"/><path id="f" class="p" d="M43 1q-17 0-17 9 0 2 3 14 5 19 10 21 3 1 15 1h6q60 0 76 7 1 0 2 1 5 2 11 23t49 196q12 45 18 71 70 280 70 282-2 4-2 5-10 6-71 6h-20q-9 6-4 25 4 15 6 18t14 3h4q72-2 146-2 122 0 128 2h10q7-7 7-11t-3-17-7-16q-3-2-23-2-31 0-64-3-14-3-19-11-7-14-51-191-11-47-22-91-70-276-70-282 0-7 10-9t52-4h32q6-8 6-9t-3-18q-4-13-10-19h-16q-37 2-137 2H65Q47 2 43 1z"/><path id="a" class="p" d="M107 637q-34 0-36 4-1 2-1 8 0 24 11 33 2 1 17 1 41-2 136-2h63q29 0 45 1t20 0q16 0 16-10 0-2-2-14-5-17-10-20h-14q-4 0-9-1t-9 0q-39-1-50-3t-18-11q-1-2-28-105t-54-216-30-133q-2-14-2-29 0-54 31-85t86-31q67 0 134 45t98 136l51 201q47 192 47 200 0 27-64 31-24 0-24 11 0 2 2 12 4 16 6 19t10 4q3 0 32-1t84-2q51 0 78 1t29 1q15 0 15-10 0-22-8-30-3-5-22-5-71-4-89-40-2-5-50-193-41-169-50-199-33-100-115-163T263-22q-92 0-147 56T60 167v16q0 18 55 238 49 201 49 207 0 7-57 9z"/><path id="g" class="p" d="M56 347q0 13 14 20h637q15-8 15-20 0-11-14-19l-318-1H72q-16 5-16 20zm0-194q0 15 16 20h636q14-10 14-20 0-13-15-20H70q-14 7-14 20z"/><path id="c" class="p" d="M230 637q-27 0-32 1t-5 11q0 27 11 33 2 1 174 1 172-1 186-3 56-8 94-28t54-46 21-43 6-34q0-45-29-84t-67-60-67-34-38-13l7-5q67-38 67-110 0-11-5-61t-5-82v-9q0-18 1-28t11-18 26-9q28 0 46 22t26 47q5 14 8 17t15 3q20 0 20-12 0-18-24-57-38-57-90-57h-9q-61 0-101 25t-44 78q0 27 15 84t15 73q0 51-43 74-15 7-25 8t-71 2h-69l-32-130Q244 61 244 59q0-4 1-5t7-4 17-2 33-2h31q6-8 6-9t-3-18q-4-13-10-19h-15q-36 2-131 2H71Q54 2 50 1q-17 0-17 9 0 2 3 14 5 19 10 21 4 1 15 1h6q27 0 60 3 14 3 19 12 3 4 72 278t69 289q0 7-57 9zm400-83q0 32-21 54t-86 28h-23q-21 0-38 1h-22q-47 0-54-10-1-3-34-133t-33-133q0-1 69-1 78 1 104 7 64 10 100 59 16 23 27 60t11 68z"/><path id="e" class="p" d="M43 1q-17 0-17 9 0 2 3 14 5 19 10 21 3 1 15 1h6q60 0 76 7 1 0 2 1 5 2 11 23t49 196q12 45 18 71 70 280 70 282-2 4-2 5-10 6-71 6h-20q-9 6-4 25 4 15 6 18t14 3h4q72-2 146-2 122 0 128 2h10q7-7 7-11t-3-17-7-16q-3-2-23-2-31 0-64-3-14-3-19-11-7-14-51-191-11-47-22-91-70-276-70-282 0-7 10-9t52-4h32q6-8 6-9t-3-18q-4-13-10-19h-16q-37 2-137 2H65Q47 2 43 1z"/><style>.e{stroke-width:0;fill:#000}.p{stroke-width:10}</style></defs><g transform="translate(-2520 -141)"><use class="e" xlink:href="#d" transform="matrix(.0488 0 0 -.0488 2530 218)"/><use class="e" xlink:href="#h" transform="matrix(.0488 0 0 -.0488 2530 218)" x="1041"/><path d="M2640 207h43.6v-2.93H2640z"/><use class="e" xlink:href="#b" transform="matrix(.0488 0 0 -.0488 2640 218)" y="676" x="60"/><use class="e" xlink:href="#f" transform="matrix(.0488 0 0 -.0488 2640 218)" y="-713" x="191"/><use class="e" xlink:href="#a" transform="matrix(.0488 0 0 -.0488 2760 218)"/><use class="e" xlink:href="#g" transform="matrix(.0488 0 0 -.0488 2760 218)" x="1049"/><use class="e" xlink:href="#c" transform="matrix(.0488 0 0 -.0488 2760 218)" x="2110"/><use class="e" xlink:href="#e" transform="matrix(.0488 0 0 -.0488 2760 218)" x="3041"/></g></svg>