<svg xmlns="http://www.w3.org/2000/svg" height="160" width="210"><defs><style>.ar,.li{fill-rule:evenodd}.li{color-rendering:auto;text-decoration-color:#000;color:#000;shape-rendering:auto;solid-color:#000;text-decoration-line:none;mix-blend-mode:normal;block-progression:tb;text-indent:0;image-rendering:auto;white-space:normal;text-decoration-style:solid;isolation:auto;text-transform:none}.ar{stroke-linejoin:round;stroke:#000;stroke-width:.375}.la{letter-spacing:0;font-size:7.5px;word-spacing:0;font-family:sans-serif;line-height:125%;fill:#000;font-weight:700}.ls{font-size:5px}.de{letter-spacing:0;font-size:7.5px;fill:red;word-spacing:0;font-family:sans-serif;line-height:125%}</style></defs><path d="M10 65h20v20H10zm40 0h50v20H50zm70 0h20v20h-20zm40 0h20v20h-20zm-95 40h20v20H65zm95 0h20v20h-20z" style="stroke:#000;stroke-width:1px;fill:#fff;fill-rule:evenodd"/><path d="M30.5 74.03v.94h17.619v-.94H30.5z" class="li"/><path d="m43.209 72.23 6.153 2.263-6.153 2.262c.983-1.336.977-3.163 0-4.525z" class="ar"/><path d="M100.5 74v1h17.664v-1H100.5z" class="li"/><path d="m112.93 72.08 6.556 2.41-6.556 2.411c1.047-1.423 1.041-3.37 0-4.821z" class="ar"/><path d="M142.01 74v1h17.666v-1H142.01z" class="li"/><path d="m147.24 76.92-6.556-2.41 6.556-2.411c-1.047 1.423-1.041 3.37 0 4.821z" class="ar"/><path d="M170 86.74v17.664h1V86.74h-1z" class="li"/><path d="m168.08 91.97 2.41-6.556 2.411 6.556c-1.423-1.047-3.37-1.041-4.821 0z" class="ar"/><path d="M130 84.5V114H87v1h44V84.5h-1z" class="li"/><path d="m92.23 116.92-6.556-2.411 6.556-2.41c-1.047 1.423-1.041 3.37 0 4.821z" class="ar"/><path d="M20 86.5V115h45.5v-1H21V86.5h-1z" class="li"/><path d="m18.08 91.73 2.41-6.556 2.411 6.556c-1.423-1.047-3.37-1.041-4.821 0z" class="ar"/><text class="la" y="22.734" x="17.206" transform="translate(0 55)">1.</text><text class="la" y="22.78" x="72.182" transform="translate(0 55)">2.</text><text class="la" y="22.726" x="127.336" transform="translate(0 55)">3.</text><text class="la" y="62.719" x="167.328" transform="translate(0 55)">4.</text><text class="la" y="22.67" x="167.279" transform="translate(0 55)">5.</text><text class="la" y="62.721" x="72.279" transform="translate(0 55)">6.</text><text class="la ls" y="7.172" x="9.1" transform="translate(0 55)">114 MHz</text><text class="la ls" y="6.72" x="95.524" transform="translate(0 55)">12,5 kHz</text><text class="la ls" y="6.72" x="141.035" transform="translate(0 55)">12,5 kHz</text><text class="la ls" y="61.448" x="183.652" transform="translate(0 55)">3,2 MHz</text><text y="14.027" x="7.5" class="de">1. generator stabilizowany</text><text y="31.965" x="37.746" class="de">2. dzielnik nastawny</text><text y="45.057" x="102.07" class="de">3. komparator</text><text y="151.84" x="126.076" class="de">4. generator wzorca</text><text y="17.164" x="137.478" class="de">5. dzielnik wzorca</text><text y="153.394" x="5.685" class="de">6. wzmacniacz b&#322;&#281;du</text><path d="m42.6 144 32.6-23M19.8 68.4l7.6-51.1M177 144l-7.11-22.3M74.6 68.5l-8.3-33M130 69.1l3.13-20.4M170 68.8l6-47.9" style="stroke:red;stroke-dasharray:1.2,1.2;stroke-width:.3;fill:none"/></svg>