<svg xmlns="http://www.w3.org/2000/svg" height="530" width="485"><defs><style>.b,.t{letter-spacing:0;word-spacing:0;font-family:sans-serif;line-height:125%;fill:#000}.t{font-size:25px}.b{font-size:32px;font-weight:700}.e{fill:#90d0e1}.o{fill:#dff1f6}</style></defs><path class="e" d="M20 20h105v40H20z"/><text class="b" y="484" x="27.3" transform="translate(0 -432)">160m</text><path class="e" d="M130 20h320v40H130z"/><text class="t" y="481.5" x="155" transform="translate(0 -432)">1810 kHz - 2000 kHz</text><path class="o" d="M20 65h105v40H20z"/><text class="b" y="529" x="40.192" transform="translate(0 -432)">80m</text><path class="o" d="M130 65h320v40H130z"/><text class="t" y="526.6" x="155" transform="translate(0 -432)">3500 kHz - 3800 kHz</text><path class="e" d="M20 110h105v40H20z"/><text class="b" y="484" x="40.311" transform="translate(0 -342)">40m</text><path class="e" d="M130 110h320v40H130z"/><text class="t" y="481.5" x="155" transform="translate(0 -342)">7000 kHz - 7200 kHz</text><path class="o" d="M20 155h105v40H20z"/><text class="b" y="529" x="39.867" transform="translate(0 -342)">30m</text><path class="o" d="M130 155h320v40H130z"/><text class="t" y="526.6" x="155" transform="translate(0 -342)">10100 kHz - 10150 kHz</text><path class="e" d="M20 200h105v40H20z"/><text class="b" y="484" x="39.51" transform="translate(0 -252)">20m</text><path class="e" d="M130 200h320v40H130z"/><text class="t" y="481.5" x="155" transform="translate(0 -252)">14000 kHz - 14350 kHz</text><path class="o" d="M20 245h105v40H20z"/><text class="b" y="529" x="38.867" transform="translate(0 -252)">17m</text><path class="o" d="M130 245h320v40H130z"/><text class="t" y="526.6" x="155" transform="translate(0 -252)">18068 kHz - 18168 kHz</text><path class="e" d="M20 290h105v40H20z"/><text class="b" y="484" x="38.867" transform="translate(0 -162)">15m</text><path class="e" d="M130 290h320v40H130z"/><text class="t" y="481.5" x="155" transform="translate(0 -162)">21000 kHz - 21450 kHz</text><path class="o" d="M20 335h105v40H20z"/><text class="b" y="529" x="38.867" transform="translate(0 -162)">12m</text><path class="o" d="M130 335h320v40H130z"/><text class="t" y="526.6" x="155" transform="translate(0 -162)">24890 kHz - 24990 kHz</text><path class="e" d="M20 380h105v40H20z"/><text class="b" y="484" x="38.867" transform="translate(0 -72)">10m</text><path class="e" d="M130 380h320v40H130z"/><text class="t" y="481.5" x="155" transform="translate(0 -72)">28000 kHz - 29700 kHz</text><path class="o" d="M20 425h105v40H20z"/><text class="b" y="529" x="51.467" transform="translate(0 -72)">6m</text><path class="o" d="M130 425h320v40H130z"/><text class="t" y="526.6" x="155" transform="translate(0 -72)">50 MHz - 52 MHz</text><path class="e" d="M20 470h105v40H20z"/><text class="b" y="484" x="51.063" transform="translate(0 18)">2m</text><path class="e" d="M130 470h320v40H130z"/><text class="t" y="481.5" x="155" transform="translate(0 18)">144 MHz - 146 MHz</text></svg>