<svg xmlns="http://www.w3.org/2000/svg" height="600" width="750" xmlns:xlink="http://www.w3.org/1999/xlink"><defs><path id="e" class="s" d="M230 637q-27 0-32 1t-5 11q0 27 11 33 2 1 174 1 172-1 186-3 56-8 94-28t54-46 21-43 6-34q0-45-29-84t-67-60-67-34-38-13l7-5q67-38 67-110 0-11-5-61t-5-82v-9q0-18 1-28t11-18 26-9q28 0 46 22t26 47q5 14 8 17t15 3q20 0 20-12 0-18-24-57-38-57-90-57h-9q-61 0-101 25t-44 78q0 27 15 84t15 73q0 51-43 74-15 7-25 8t-71 2h-69l-32-130Q244 61 244 59q0-4 1-5t7-4 17-2 33-2h31q6-8 6-9t-3-18q-4-13-10-19h-15q-36 2-131 2H71Q54 2 50 1q-17 0-17 9 0 2 3 14 5 19 10 21 4 1 15 1h6q27 0 60 3 14 3 19 12 3 4 72 278t69 289q0 7-57 9zm400-83q0 32-21 54t-86 28h-23q-21 0-38 1h-22q-47 0-54-10-1-3-34-133t-33-133q0-1 69-1 78 1 104 7 64 10 100 59 16 23 27 60t11 68z"/><path id="ag" class="s" d="M347 338q-10 0-53 11t-63 11-34-4-23-10-12-11-7-11l-2-4q-3-3-15-3-21 0-21 8 0 5 3 14 13 39 43 67t66 34q12 2 17 2 25 0 45-17t38-33 38-17q22 0 44 33t23 33q1 1 15 1h13q6-6 6-8 0-4-5-14t-14-21-17-22-14-19l-7-9q-43-51-136-135T160 106l-12-12 15-1q22 0 64-11t63-11q38 0 70 19t42 50q4 9 7 11t15 2q19 0 19-10 0-5-1-9-17-62-66-103t-98-42q-26 0-46 17t-39 34-38 17q-44 0-79-60-6-8-17-8H41q-6 6-6 9 0 15 58 86 39 45 132 130t115 108q12 16 7 16z"/><path id="m" class="s" d="M56 347q0 13 14 20h637q15-8 15-20 0-11-14-19l-318-1H72q-16 5-16 20zm0-194q0 15 16 20h636q14-10 14-20 0-13-15-20H70q-14 7-14 20z"/><path id="ab" class="s" d="m213 578-13-5q-14-5-40-10t-58-7H83v46h19q47 2 87 15t56 24 28 22q2 3 12 3 9 0 17-6V361l1-300q7-7 12-9t24-4 62-2h26V0h-11q-21 3-159 3-136 0-157-3H88v46h64q16 0 25 1t16 3 8 2 6 5 6 4v517z"/><path id="j" class="s" d="M56 237v13l14 20h299v150l1 150q10 13 19 13 13 0 20-15V270h298q15-8 15-20t-15-20H409V-68q-8-14-18-14h-4q-12 0-18 14v298H70q-14 7-14 20z"/><path id="ak" class="s" d="M109 429q-27 0-43 18t-16 44q0 71 53 123t132 52q91 0 152-56t62-145q0-43-20-82t-48-68-80-74q-36-31-100-92l-59-56 76-1q157 0 167 5 7 2 24 89v3h40v-3q-1-3-13-91T421 3V0H50v31q0 7 6 15t30 35q29 32 50 56 9 10 34 37t34 37 29 33 28 34 23 30 21 32 15 29 13 32 7 30 3 33q0 63-34 109t-97 46q-33 0-58-17t-35-33-10-19q0-1 5-1 18 0 37-14t19-46q0-25-16-42t-45-18z"/><path id="ai" class="s" d="M127 463q-27 0-42 17t-16 44q0 55 48 98t116 43q35 0 44-1 74-12 113-53t40-89q0-52-34-101t-94-71l-3-2q0-1 9-3t29-9 38-21q82-53 82-140 0-79-62-138T238-22q-80 0-138 43T42 130q0 28 18 45t45 18q28 0 46-18t18-45q0-11-3-20t-7-16-11-12-12-8-10-4-8-3l-4-1q51-45 124-45 55 0 83 53 17 33 17 101v20q0 95-64 127-15 6-61 7l-42 1-3 2q-2 3-2 16 0 18 8 18 28 0 58 5 34 5 62 42t28 112v8q0 57-35 79-22 14-47 14-32 0-59-11t-38-23-11-12h3q3-1 8-2t10-5 12-7 10-11 8-15 3-20q0-22-14-39t-45-18z"/><path id="q" class="s" d="M78 60q0 24 17 42t43 18q24 0 42-16t19-43q0-25-17-43T139 0 96 17 78 60z"/><path id="x" class="s" d="M21 287q1 6 3 16t12 38 20 47 33 37 46 17q36 0 60-18t30-34 6-21q0-2 1-2l11 11q61 64 139 64 54 0 87-27t34-79-38-157-38-127q0-26 17-26 6 0 9 1 29 5 52 38t35 80q2 8 20 8 20 0 20-8 0-1-4-15-8-29-22-57t-46-56-69-27q-47 0-68 27t-21 56q0 19 36 120t37 152q0 59-44 59h-5q-86 0-145-101l-7-12-33-134Q156 26 151 16q-13-27-43-27-13 0-21 6T76 7t-2 10q0 13 38 163t40 163q1 5 1 23 0 39-24 39-38 0-63-100-6-20-6-21-2-6-19-6H27q-6 6-6 9z"/><path id="ad" class="s" d="M60 948q3 2 605 2h602l58-135q59-138 63-146h-40l-7 14q-21 41-56 78-50 48-111 77t-141 43-151 17-183 4H251l8-11q463-633 465-639 1-2 0-6-3-3-264-302L207-356q0-1 211-1h141q89 0 128-1 136 0 220 5t167 21 141 49 103 87q21 26 41 72h40q0-1-7-21t-25-65-31-84l-58-155-601-1q-602 0-605 2-6 2-6 9 0 2 2 6l533 610q0 1-33 45T463 366 333 544L62 909l-1 15q0 21 5 24z"/><path id="z" class="s" d="M184 600q0 24 19 42t44 19q18 0 30-12t13-30q0-23-20-42t-44-20q-15 0-28 10t-14 33zM21 287q0 8 9 31t24 51 44 51 60 22q39 0 65-23t27-62q0-17-14-56t-40-105-42-113q-5-22-5-32 0-25 17-25 9 0 19 3t23 14 27 35 25 59q3 12 5 14t17 2q20 0 20-10 0-8-9-31t-25-51-45-50-62-22q-32 0-59 21T74 74q0 17 5 32t43 114q38 101 44 121t7 39q0 24-17 24h-2q-30 0-55-33t-38-84q-1-1-2-3t-1-3-2-2-3-1-4 0-8 0H27q-6 6-6 9z"/><path id="b" class="s" d="m213 578-13-5q-14-5-40-10t-58-7H83v46h19q47 2 87 15t56 24 28 22q2 3 12 3 9 0 17-6V361l1-300q7-7 12-9t24-4 62-2h26V0h-11q-21 3-159 3-136 0-157-3H88v46h64q16 0 25 1t16 3 8 2 6 5 6 4v517z"/><path id="c" class="s" d="M230 637q-27 0-32 1t-5 11q0 27 11 33 2 1 174 1 172-1 186-3 56-8 94-28t54-46 21-43 6-34q0-45-29-84t-67-60-67-34-38-13l7-5q67-38 67-110 0-11-5-61t-5-82v-9q0-18 1-28t11-18 26-9q28 0 46 22t26 47q5 14 8 17t15 3q20 0 20-12 0-18-24-57-38-57-90-57h-9q-61 0-101 25t-44 78q0 27 15 84t15 73q0 51-43 74-15 7-25 8t-71 2h-69l-32-130Q244 61 244 59q0-4 1-5t7-4 17-2 33-2h31q6-8 6-9t-3-18q-4-13-10-19h-15q-36 2-131 2H71Q54 2 50 1q-17 0-17 9 0 2 3 14 5 19 10 21 4 1 15 1h6q27 0 60 3 14 3 19 12 3 4 72 278t69 289q0 7-57 9zm400-83q0 32-21 54t-86 28h-23q-21 0-38 1h-22q-47 0-54-10-1-3-34-133t-33-133q0-1 69-1 78 1 104 7 64 10 100 59 16 23 27 60t11 68z"/><path id="ae" class="s" d="M347 338q-10 0-53 11t-63 11-34-4-23-10-12-11-7-11l-2-4q-3-3-15-3-21 0-21 8 0 5 3 14 13 39 43 67t66 34q12 2 17 2 25 0 45-17t38-33 38-17q22 0 44 33t23 33q1 1 15 1h13q6-6 6-8 0-4-5-14t-14-21-17-22-14-19l-7-9q-43-51-136-135T160 106l-12-12 15-1q22 0 64-11t63-11q38 0 70 19t42 50q4 9 7 11t15 2q19 0 19-10 0-5-1-9-17-62-66-103t-98-42q-26 0-46 17t-39 34-38 17q-44 0-79-60-6-8-17-8H41q-6 6-6 9 0 15 58 86 39 45 132 130t115 108q12 16 7 16z"/><path id="l" class="s" d="M56 347q0 13 14 20h637q15-8 15-20 0-11-14-19l-318-1H72q-16 5-16 20zm0-194q0 15 16 20h636q14-10 14-20 0-13-15-20H70q-14 7-14 20z"/><path id="i" class="s" d="M56 237v13l14 20h299v150l1 150q10 13 19 13 13 0 20-15V270h298q15-8 15-20t-15-20H409V-68q-8-14-18-14h-4q-12 0-18 14v298H70q-14 7-14 20z"/><path id="aj" class="s" d="M109 429q-27 0-43 18t-16 44q0 71 53 123t132 52q91 0 152-56t62-145q0-43-20-82t-48-68-80-74q-36-31-100-92l-59-56 76-1q157 0 167 5 7 2 24 89v3h40v-3q-1-3-13-91T421 3V0H50v31q0 7 6 15t30 35q29 32 50 56 9 10 34 37t34 37 29 33 28 34 23 30 21 32 15 29 13 32 7 30 3 33q0 63-34 109t-97 46q-33 0-58-17t-35-33-10-19q0-1 5-1 18 0 37-14t19-46q0-25-16-42t-45-18z"/><path id="ah" class="s" d="M127 463q-27 0-42 17t-16 44q0 55 48 98t116 43q35 0 44-1 74-12 113-53t40-89q0-52-34-101t-94-71l-3-2q0-1 9-3t29-9 38-21q82-53 82-140 0-79-62-138T238-22q-80 0-138 43T42 130q0 28 18 45t45 18q28 0 46-18t18-45q0-11-3-20t-7-16-11-12-12-8-10-4-8-3l-4-1q51-45 124-45 55 0 83 53 17 33 17 101v20q0 95-64 127-15 6-61 7l-42 1-3 2q-2 3-2 16 0 18 8 18 28 0 58 5 34 5 62 42t28 112v8q0 57-35 79-22 14-47 14-32 0-59-11t-38-23-11-12h3q3-1 8-2t10-5 12-7 10-11 8-15 3-20q0-22-14-39t-45-18z"/><path id="p" class="s" d="M78 60q0 24 17 42t43 18q24 0 42-16t19-43q0-25-17-43T139 0 96 17 78 60z"/><path id="w" class="s" d="M21 287q1 6 3 16t12 38 20 47 33 37 46 17q36 0 60-18t30-34 6-21q0-2 1-2l11 11q61 64 139 64 54 0 87-27t34-79-38-157-38-127q0-26 17-26 6 0 9 1 29 5 52 38t35 80q2 8 20 8 20 0 20-8 0-1-4-15-8-29-22-57t-46-56-69-27q-47 0-68 27t-21 56q0 19 36 120t37 152q0 59-44 59h-5q-86 0-145-101l-7-12-33-134Q156 26 151 16q-13-27-43-27-13 0-21 6T76 7t-2 10q0 13 38 163t40 163q1 5 1 23 0 39-24 39-38 0-63-100-6-20-6-21-2-6-19-6H27q-6 6-6 9z"/><path id="ac" class="s" d="M60 948q3 2 605 2h602l58-135q59-138 63-146h-40l-7 14q-21 41-56 78-50 48-111 77t-141 43-151 17-183 4H251l8-11q463-633 465-639 1-2 0-6-3-3-264-302L207-356q0-1 211-1h141q89 0 128-1 136 0 220 5t167 21 141 49 103 87q21 26 41 72h40q0-1-7-21t-25-65-31-84l-58-155-601-1q-602 0-605 2-6 2-6 9 0 2 2 6l533 610q0 1-33 45T463 366 333 544L62 909l-1 15q0 21 5 24z"/><path id="y" class="s" d="M184 600q0 24 19 42t44 19q18 0 30-12t13-30q0-23-20-42t-44-20q-15 0-28 10t-14 33zM21 287q0 8 9 31t24 51 44 51 60 22q39 0 65-23t27-62q0-17-14-56t-40-105-42-113q-5-22-5-32 0-25 17-25 9 0 19 3t23 14 27 35 25 59q3 12 5 14t17 2q20 0 20-10 0-8-9-31t-25-51-45-50-62-22q-32 0-59 21T74 74q0 17 5 32t43 114q38 101 44 121t7 39q0 24-17 24h-2q-30 0-55-33t-38-84q-1-1-2-3t-1-3-2-2-3-1-4 0-8 0H27q-6 6-6 9z"/><path id="d" class="s" d="M230 637q-27 0-32 1t-5 11q0 27 11 33 2 1 174 1 172-1 186-3 56-8 94-28t54-46 21-43 6-34q0-45-29-84t-67-60-67-34-38-13l7-5q67-38 67-110 0-11-5-61t-5-82v-9q0-18 1-28t11-18 26-9q28 0 46 22t26 47q5 14 8 17t15 3q20 0 20-12 0-18-24-57-38-57-90-57h-9q-61 0-101 25t-44 78q0 27 15 84t15 73q0 51-43 74-15 7-25 8t-71 2h-69l-32-130Q244 61 244 59q0-4 1-5t7-4 17-2 33-2h31q6-8 6-9t-3-18q-4-13-10-19h-15q-36 2-131 2H71Q54 2 50 1q-17 0-17 9 0 2 3 14 5 19 10 21 4 1 15 1h6q27 0 60 3 14 3 19 12 3 4 72 278t69 289q0 7-57 9zm400-83q0 32-21 54t-86 28h-23q-21 0-38 1h-22q-47 0-54-10-1-3-34-133t-33-133q0-1 69-1 78 1 104 7 64 10 100 59 16 23 27 60t11 68z"/><path id="af" class="s" d="M347 338q-10 0-53 11t-63 11-34-4-23-10-12-11-7-11l-2-4q-3-3-15-3-21 0-21 8 0 5 3 14 13 39 43 67t66 34q12 2 17 2 25 0 45-17t38-33 38-17q22 0 44 33t23 33q1 1 15 1h13q6-6 6-8 0-4-5-14t-14-21-17-22-14-19l-7-9q-43-51-136-135T160 106l-12-12 15-1q22 0 64-11t63-11q38 0 70 19t42 50q4 9 7 11t15 2q19 0 19-10 0-5-1-9-17-62-66-103t-98-42q-26 0-46 17t-39 34-38 17q-44 0-79-60-6-8-17-8H41q-6 6-6 9 0 15 58 86 39 45 132 130t115 108q12 16 7 16z"/><path id="aa" class="s" d="M56 347q0 13 14 20h637q15-8 15-20 0-11-14-19l-318-1H72q-16 5-16 20zm0-194q0 15 16 20h636q14-10 14-20 0-13-15-20H70q-14 7-14 20z"/><path id="o" class="s" d="m213 578-13-5q-14-5-40-10t-58-7H83v46h19q47 2 87 15t56 24 28 22q2 3 12 3 9 0 17-6V361l1-300q7-7 12-9t24-4 62-2h26V0h-11q-21 3-159 3-136 0-157-3H88v46h64q16 0 25 1t16 3 8 2 6 5 6 4v517z"/><path id="al" class="s" d="M78 35v25l16 43 43 18q28 0 50-25t23-88q0-35-9-68t-21-57-26-41-24-27-13-9q-4 0-13 9t-9 13 11 16 25 30 26 50 16 73V9l-1-1q-2-1-5-2t-6-3-9-2-12-1q-27 0-44 17z"/><path id="n" class="s" d="M109 429q-27 0-43 18t-16 44q0 71 53 123t132 52q91 0 152-56t62-145q0-43-20-82t-48-68-80-74q-36-31-100-92l-59-56 76-1q157 0 167 5 7 2 24 89v3h40v-3q-1-3-13-91T421 3V0H50v31q0 7 6 15t30 35q29 32 50 56 9 10 34 37t34 37 29 33 28 34 23 30 21 32 15 29 13 32 7 30 3 33q0 63-34 109t-97 46q-33 0-58-17t-35-33-10-19q0-1 5-1 18 0 37-14t19-46q0-25-16-42t-45-18z"/><path id="am" class="s" d="M56 237v13l14 20h299v150l1 150q10 13 19 13 13 0 20-15V270h298q15-8 15-20t-15-20H409V-68q-8-14-18-14h-4q-12 0-18 14v298H70q-14 7-14 20z"/><symbol id="h"><path fill-opacity=".75" stroke="#000" stroke-width="2" fill="#fff" d="M102 142v60H82v-60z"/><path d="M91.6 122v20m0 61v20" class="s2"/></symbol><symbol id="v"><text class="f1" y="17.635" x="61.401">R</text><text class="f2" y="20.195" x="75">1</text></symbol><symbol id="u"><text class="f1" y="17.635" x="161.901">R</text><text class="f2" y="20.195" x="175">2</text></symbol><symbol id="t"><text class="f1" y="17.635" x="286.401">R</text><text class="f2" y="20.195" x="300">n</text></symbol><symbol id="a"><path class="s2" d="M100 35h40"/></symbol><symbol id="k"><path class="s2" d="M200 34.9h13m52 0h-11"/><path d="M215 34.8h38.5" stroke="#000" stroke-dasharray="4,4" stroke-width="2" fill="none"/></symbol><symbol id="g"><path fill-opacity=".75" stroke="#000" stroke-width="2" fill="#fff" d="M40 25h60v20H40z"/></symbol><symbol id="f"><path class="s2" d="M20 35h20"/></symbol><symbol id="s"><path d="M506-64.3h-23.2v-3.12H506v3.12zm0 8.2h-23.2v-3.12H506v3.12z"/></symbol><symbol id="r"><path d="M602 145h-2.51l-4.86-5.78h-2.72V145h-1.93v-14.5h4.07q1.32 0 2.2.176.879.166 1.58.605.791.498 1.23 1.26.449.752.449 1.91 0 1.57-.791 2.64-.791 1.05-2.18 1.59l5.47 6.36zm-4.52-10.4q0-.625-.225-1.1-.215-.488-.723-.82-.42-.283-.996-.391-.576-.117-1.36-.117h-2.28v5.49h1.95q.918 0 1.6-.156.684-.166 1.16-.605.439-.41.645-.938.215-.537.215-1.36z"/><path d="M609 149h-5.73v-.882l4.13-5.21h-4.04v-.997h5.53v.851l-4.15 5.23H609v1.01z" baseline-shift="sub"/></symbol><style>.u{stroke-width:0;fill:#000}.c{stroke:#000;stroke-width:1.86;fill:#fff}.s{stroke-width:10}.s2{stroke:#000;stroke-width:2;fill:none}.f1,.f2{font-size:20px;line-height:125%;font-family:Verdana;fill:#000}.f2{font-size:10px}</style></defs><g transform="translate(0 -452)"><use xlink:href="#g" transform="matrix(1.24 0 0 1.24 -1 478)"/><use xlink:href="#f" transform="matrix(1.11 0 0 1.11 2.71 483)"/><use xlink:href="#a" transform="matrix(1.24 0 0 1.24 .236 478)"/><use xlink:href="#g" transform="matrix(1.24 0 0 1.24 125 478)"/><use xlink:href="#k" transform="matrix(1.24 0 0 1.24 3.02 479)"/><use xlink:href="#g" transform="matrix(1.24 0 0 1.24 283 478)"/><use xlink:href="#v" transform="matrix(1.24 0 0 1.24 -3.26 478)"/><use xlink:href="#u" transform="matrix(1.24 0 0 1.24 -1.35 478)"/><use xlink:href="#t" transform="matrix(1.24 0 0 1.24 1.59 478)"/><use xlink:href="#f" transform="matrix(1.24 0 0 1.24 383 478)"/><use xlink:href="#s" transform="matrix(1.24 0 0 1.24 -110 598)"/><use xlink:href="#r" transform="matrix(1.24 0 0 1.24 -93.6 319)"/><use xlink:href="#f" transform="matrix(1.24 0 0 1.24 561 478)"/><use xlink:href="#g" transform="matrix(1.24 0 0 1.24 562 478)"/><use xlink:href="#f" transform="matrix(1.24 0 0 1.24 662 478)"/><circle cx="579" cy="522" r="5.62" class="c"/><circle cx="718" cy="522" r="5.62" class="c"/><use xlink:href="#h" transform="matrix(1.24 0 0 1.24 -14.1 564)"/><use xlink:href="#a" transform="matrix(1.24 0 0 1.24 -23.5 673)"/><use xlink:href="#a" transform="matrix(1.24 0 0 1.24 -23.5 795)"/><use xlink:href="#h" transform="matrix(1.24 0 0 1.24 87 564)"/><use xlink:href="#a" transform="matrix(1.24 0 0 1.24 77.5 673)"/><use xlink:href="#a" transform="matrix(1.24 0 0 1.24 77.5 795)"/><use xlink:href="#a" transform="matrix(1.24 0 0 1.24 26 673)"/><use xlink:href="#a" transform="matrix(1.24 0 0 1.24 26 795)"/><use xlink:href="#h" transform="matrix(1.24 0 0 1.24 268 564)"/><use xlink:href="#a" transform="matrix(1.24 0 0 1.24 259 673)"/><use xlink:href="#a" transform="matrix(1.24 0 0 1.24 259 795)"/><use xlink:href="#a" transform="matrix(1.24 0 0 1.24 208 673)"/><use xlink:href="#a" transform="matrix(1.24 0 0 1.24 208 795)"/><use xlink:href="#k" transform="matrix(1.24 0 0 1.24 3.53 673)"/><use xlink:href="#k" transform="matrix(1.24 0 0 1.24 3.53 795)"/><use xlink:href="#v" transform="matrix(1.24 0 0 1.24 -23.9 763)"/><use xlink:href="#u" transform="matrix(1.24 0 0 1.24 -46.7 763)"/><use xlink:href="#t" transform="matrix(1.24 0 0 1.24 -17.6 763)"/><use xlink:href="#s" transform="matrix(1.24 0 0 1.24 -110 854)"/><use xlink:href="#r" transform="matrix(1.24 0 0 1.24 -42 604)"/><use xlink:href="#h" transform="matrix(1.24 0 0 1.24 554 564)"/><use xlink:href="#a" transform="matrix(1.24 0 0 1.24 493 673)"/><use xlink:href="#a" transform="matrix(1.24 0 0 1.24 493 795)"/><circle cx="610" cy="716" r="5.62" class="c"/><circle cx="610" cy="838" r="5.62" class="c"/><use class="u" xlink:href="#e" transform="matrix(.0255 0 0 -.0255 161 601)"/><use class="u" xlink:href="#ag" transform="matrix(.018 0 0 -.018 161 601)" y="-213" x="1080"/><use class="u" xlink:href="#m" transform="matrix(.0255 0 0 -.0255 154 601)" x="1726"/><use class="u" xlink:href="#e" transform="matrix(.0255 0 0 -.0255 225 601)"/><use class="u" xlink:href="#ab" transform="matrix(.018 0 0 -.018 225 601)" y="-213" x="1080"/><use class="u" xlink:href="#j" transform="matrix(.0255 0 0 -.0255 154 601)" x="4230"/><use class="u" xlink:href="#e" transform="matrix(.0255 0 0 -.0255 288 601)"/><use class="u" xlink:href="#ak" transform="matrix(.018 0 0 -.018 288 601)" y="-213" x="1080"/><use class="u" xlink:href="#j" transform="matrix(.0255 0 0 -.0255 154 601)" x="6678"/><use class="u" xlink:href="#e" transform="matrix(.0255 0 0 -.0255 350 601)"/><use class="u" xlink:href="#ai" transform="matrix(.018 0 0 -.018 350 601)" y="-213" x="1080"/><use class="u" xlink:href="#j" transform="matrix(.0255 0 0 -.0255 154 601)" x="8905"/><use class="u" xlink:href="#q" transform="matrix(.0255 0 0 -.0255 154 601)" x="9688"/><use class="u" xlink:href="#q" transform="matrix(.0255 0 0 -.0255 154 601)" x="10137"/><use class="u" xlink:href="#q" transform="matrix(.0255 0 0 -.0255 154 601)" x="10587"/><use class="u" xlink:href="#j" transform="matrix(.0255 0 0 -.0255 154 601)" x="11037"/><use class="u" xlink:href="#e" transform="matrix(.0255 0 0 -.0255 455 601)"/><use class="u" xlink:href="#x" transform="matrix(.018 0 0 -.018 455 601)" y="-213" x="1080"/><use class="u" xlink:href="#m" transform="matrix(.0255 0 0 -.0255 154 601)" x="13389"/><use class="u" xlink:href="#ad" transform="matrix(.0255 0 0 -.0255 522 601)"/><use class="u" xlink:href="#z" transform="matrix(.018 0 0 -.018 526 629)"/><use class="u" xlink:href="#m" transform="matrix(.018 0 0 -.018 526 629)" x="350"/><use class="u" xlink:href="#ab" transform="matrix(.018 0 0 -.018 526 629)" x="1133"/><use class="u" xlink:href="#x" transform="matrix(.018 0 0 -.018 522 601)" y="1640" x="722"/><use class="u" xlink:href="#e" transform="matrix(.0255 0 0 -.0255 564 601)"/><use class="u" xlink:href="#z" transform="matrix(.018 0 0 -.018 564 601)" y="-213" x="1080"/><path d="M135 896h33.6v-1.53H135z"/><use class="u" xlink:href="#b" transform="matrix(.0255 0 0 -.0255 135 902)" y="676" x="406"/><use class="u" xlink:href="#c" transform="matrix(.0255 0 0 -.0255 137 920)"/><use class="u" xlink:href="#ae" transform="matrix(.018 0 0 -.018 137 920)" y="-213" x="1080"/><use class="u" xlink:href="#l" transform="matrix(.0255 0 0 -.0255 132 902)" x="1836"/><path d="M209 896h34.2v-1.53H209z"/><use class="u" xlink:href="#b" transform="matrix(.0255 0 0 -.0255 209 902)" y="676" x="418"/><use class="u" xlink:href="#c" transform="matrix(.0255 0 0 -.0255 210 920)"/><use class="u" xlink:href="#b" transform="matrix(.018 0 0 -.018 210 920)" y="-213" x="1080"/><use class="u" xlink:href="#i" transform="matrix(.0255 0 0 -.0255 132 902)" x="4700"/><path d="M280 896h34.2v-1.53H280z"/><use class="u" xlink:href="#b" transform="matrix(.0255 0 0 -.0255 280 902)" y="676" x="418"/><use class="u" xlink:href="#c" transform="matrix(.0255 0 0 -.0255 282 920)"/><use class="u" xlink:href="#aj" transform="matrix(.018 0 0 -.018 282 920)" y="-213" x="1080"/><use class="u" xlink:href="#i" transform="matrix(.0255 0 0 -.0255 132 902)" x="7508"/><path d="M352 896h34.2v-1.53H352z"/><use class="u" xlink:href="#b" transform="matrix(.0255 0 0 -.0255 352 902)" y="676" x="418"/><use class="u" xlink:href="#c" transform="matrix(.0255 0 0 -.0255 353 920)"/><use class="u" xlink:href="#ah" transform="matrix(.018 0 0 -.018 353 920)" y="-213" x="1080"/><use class="u" xlink:href="#i" transform="matrix(.0255 0 0 -.0255 132 902)" x="10095"/><use class="u" xlink:href="#p" transform="matrix(.0255 0 0 -.0255 132 902)" x="10878"/><use class="u" xlink:href="#p" transform="matrix(.0255 0 0 -.0255 132 902)" x="11327"/><use class="u" xlink:href="#p" transform="matrix(.0255 0 0 -.0255 132 902)" x="11777"/><use class="u" xlink:href="#i" transform="matrix(.0255 0 0 -.0255 132 902)" x="12227"/><path d="M466 896h35.9v-1.53H466z"/><use class="u" xlink:href="#b" transform="matrix(.0255 0 0 -.0255 466 902)" y="676" x="453"/><use class="u" xlink:href="#c" transform="matrix(.0255 0 0 -.0255 468 920)"/><use class="u" xlink:href="#w" transform="matrix(.018 0 0 -.018 468 920)" y="-213" x="1080"/><use class="u" xlink:href="#l" transform="matrix(.0255 0 0 -.0255 132 902)" x="14939"/><use class="u" xlink:href="#ac" transform="matrix(.0255 0 0 -.0255 539 902)"/><use class="u" xlink:href="#y" transform="matrix(.018 0 0 -.018 543 930)"/><use class="u" xlink:href="#l" transform="matrix(.018 0 0 -.018 543 930)" x="350"/><use class="u" xlink:href="#b" transform="matrix(.018 0 0 -.018 543 930)" x="1133"/><use class="u" xlink:href="#w" transform="matrix(.018 0 0 -.018 539 902)" y="1640" x="722"/><path d="M584 896h31.4v-1.53H584z"/><use class="u" xlink:href="#b" transform="matrix(.0255 0 0 -.0255 584 902)" y="676" x="363"/><use class="u" xlink:href="#c" transform="matrix(.0255 0 0 -.0255 585 920)"/><use class="u" xlink:href="#y" transform="matrix(.018 0 0 -.018 585 920)" y="-213" x="1080"/><use class="u" xlink:href="#d" transform="matrix(.0255 0 0 -.0255 253 1000)"/><use class="u" xlink:href="#af" transform="matrix(.018 0 0 -.018 253 1000)" y="-213" x="1080"/><use class="u" xlink:href="#aa" transform="matrix(.0255 0 0 -.0255 253 1000)" x="1476"/><use class="u" xlink:href="#d" transform="matrix(.0255 0 0 -.0255 317 1000)"/><use class="u" xlink:href="#o" transform="matrix(.018 0 0 -.018 337 1010)"/><use class="u" xlink:href="#al" transform="matrix(.018 0 0 -.018 337 1010)" x="505"/><use class="u" xlink:href="#n" transform="matrix(.018 0 0 -.018 337 1010)" x="788"/><use class="u" xlink:href="#aa" transform="matrix(.0255 0 0 -.0255 253 1000)" x="4593"/><path d="M400 997h96.5v-1.53H400z"/><use class="u" xlink:href="#d" transform="matrix(.0255 0 0 -.0255 417 985)"/><use class="u" xlink:href="#o" transform="matrix(.018 0 0 -.018 417 985)" y="-213" x="1080"/><use class="u" xlink:href="#d" transform="matrix(.0255 0 0 -.0255 448 985)"/><use class="u" xlink:href="#n" transform="matrix(.018 0 0 -.018 448 985)" y="-213" x="1080"/><use class="u" xlink:href="#d" transform="matrix(.0255 0 0 -.0255 401 1020)"/><use class="u" xlink:href="#o" transform="matrix(.018 0 0 -.018 401 1020)" y="-213" x="1080"/><use class="u" xlink:href="#am" transform="matrix(.0255 0 0 -.0255 401 1020)" x="1443"/><use class="u" xlink:href="#d" transform="matrix(.0255 0 0 -.0255 464 1020)"/><use class="u" xlink:href="#n" transform="matrix(.018 0 0 -.018 464 1020)" y="-213" x="1080"/></g></svg>