<svg xmlns="http://www.w3.org/2000/svg" height="600" width="700" xmlns:xlink="http://www.w3.org/1999/xlink"><defs><path id="j" class="s" d="m213 578-13-5q-14-5-40-10t-58-7H83v46h19q47 2 87 15t56 24 28 22q2 3 12 3 9 0 17-6V361l1-300q7-7 12-9t24-4 62-2h26V0h-11q-21 3-159 3-136 0-157-3H88v46h64q16 0 25 1t16 3 8 2 6 5 6 4v517z"/><path id="k" class="s" d="M50 252q0 115 67 221t169 168 204 63q90 0 143-51 9-10 15-17t8-10l1-3q3 0 27 26 7 6 15 14t16 16 10 11l15 15h6q14 0 14-7 0-4-32-137-36-139-36-140-2-5-5-6t-18-2h-16q-6 6-6 9 0 1 1 7t2 20 1 32q0 71-32 124t-109 54q-26 0-56-7t-72-24-83-56-73-93q-32-57-51-133t-19-124q0-114 76-164 48-34 118-34 91 0 162 68t94 148q4 13 6 15t16 2q20 0 20-9 0-5-1-9-29-107-124-184T319-22q-113 0-191 75T50 252z"/><path id="l" class="s" d="M347 338q-10 0-53 11t-63 11-34-4-23-10-12-11-7-11l-2-4q-3-3-15-3-21 0-21 8 0 5 3 14 13 39 43 67t66 34q12 2 17 2 25 0 45-17t38-33 38-17q22 0 44 33t23 33q1 1 15 1h13q6-6 6-8 0-4-5-14t-14-21-17-22-14-19l-7-9q-43-51-136-135T160 106l-12-12 15-1q22 0 64-11t63-11q38 0 70 19t42 50q4 9 7 11t15 2q19 0 19-10 0-5-1-9-17-62-66-103t-98-42q-26 0-46 17t-39 34-38 17q-44 0-79-60-6-8-17-8H41q-6 6-6 9 0 15 58 86 39 45 132 130t115 108q12 16 7 16z"/><path id="m" class="s" d="M56 347q0 13 14 20h637q15-8 15-20 0-11-14-19l-318-1H72q-16 5-16 20zm0-194q0 15 16 20h636q14-10 14-20 0-13-15-20H70q-14 7-14 20z"/><path id="n" class="s" d="M56 237v13l14 20h299v150l1 150q10 13 19 13 13 0 20-15V270h298q15-8 15-20t-15-20H409V-68q-8-14-18-14h-4q-12 0-18 14v298H70q-14 7-14 20z"/><path id="o" class="s" d="M109 429q-27 0-43 18t-16 44q0 71 53 123t132 52q91 0 152-56t62-145q0-43-20-82t-48-68-80-74q-36-31-100-92l-59-56 76-1q157 0 167 5 7 2 24 89v3h40v-3q-1-3-13-91T421 3V0H50v31q0 7 6 15t30 35q29 32 50 56 9 10 34 37t34 37 29 33 28 34 23 30 21 32 15 29 13 32 7 30 3 33q0 63-34 109t-97 46q-33 0-58-17t-35-33-10-19q0-1 5-1 18 0 37-14t19-46q0-25-16-42t-45-18z"/><path id="p" class="s" d="M78 60q0 24 17 42t43 18q24 0 42-16t19-43q0-25-17-43T139 0 96 17 78 60z"/><path id="q" class="s" d="M21 287q1 6 3 16t12 38 20 47 33 37 46 17q36 0 60-18t30-34 6-21q0-2 1-2l11 11q61 64 139 64 54 0 87-27t34-79-38-157-38-127q0-26 17-26 6 0 9 1 29 5 52 38t35 80q2 8 20 8 20 0 20-8 0-1-4-15-8-29-22-57t-46-56-69-27q-47 0-68 27t-21 56q0 19 36 120t37 152q0 59-44 59h-5q-86 0-145-101l-7-12-33-134Q156 26 151 16q-13-27-43-27-13 0-21 6T76 7t-2 10q0 13 38 163t40 163q1 5 1 23 0 39-24 39-38 0-63-100-6-20-6-21-2-6-19-6H27q-6 6-6 9z"/><path id="r" class="s" d="M60 948q3 2 605 2h602l58-135q59-138 63-146h-40l-7 14q-21 41-56 78-50 48-111 77t-141 43-151 17-183 4H251l8-11q463-633 465-639 1-2 0-6-3-3-264-302L207-356q0-1 211-1h141q89 0 128-1 136 0 220 5t167 21 141 49 103 87q21 26 41 72h40q0-1-7-21t-25-65-31-84l-58-155-601-1q-602 0-605 2-6 2-6 9 0 2 2 6l533 610q0 1-33 45T463 366 333 544L62 909l-1 15q0 21 5 24z"/><path id="s" class="s" d="M184 600q0 24 19 42t44 19q18 0 30-12t13-30q0-23-20-42t-44-20q-15 0-28 10t-14 33zM21 287q0 8 9 31t24 51 44 51 60 22q39 0 65-23t27-62q0-17-14-56t-40-105-42-113q-5-22-5-32 0-25 17-25 9 0 19 3t23 14 27 35 25 59q3 12 5 14t17 2q20 0 20-10 0-8-9-31t-25-51-45-50-62-22q-32 0-59 21T74 74q0 17 5 32t43 114q38 101 44 121t7 39q0 24-17 24h-2q-30 0-55-33t-38-84q-1-1-2-3t-1-3-2-2-3-1-4 0-8 0H27q-6 6-6 9z"/><path id="t" class="s" d="M50 252q0 115 67 221t169 168 204 63q90 0 143-51 9-10 15-17t8-10l1-3q3 0 27 26 7 6 15 14t16 16 10 11l15 15h6q14 0 14-7 0-4-32-137-36-139-36-140-2-5-5-6t-18-2h-16q-6 6-6 9 0 1 1 7t2 20 1 32q0 71-32 124t-109 54q-26 0-56-7t-72-24-83-56-73-93q-32-57-51-133t-19-124q0-114 76-164 48-34 118-34 91 0 162 68t94 148q4 13 6 15t16 2q20 0 20-9 0-5-1-9-29-107-124-184T319-22q-113 0-191 75T50 252z"/><path id="u" class="s" d="M347 338q-10 0-53 11t-63 11-34-4-23-10-12-11-7-11l-2-4q-3-3-15-3-21 0-21 8 0 5 3 14 13 39 43 67t66 34q12 2 17 2 25 0 45-17t38-33 38-17q22 0 44 33t23 33q1 1 15 1h13q6-6 6-8 0-4-5-14t-14-21-17-22-14-19l-7-9q-43-51-136-135T160 106l-12-12 15-1q22 0 64-11t63-11q38 0 70 19t42 50q4 9 7 11t15 2q19 0 19-10 0-5-1-9-17-62-66-103t-98-42q-26 0-46 17t-39 34-38 17q-44 0-79-60-6-8-17-8H41q-6 6-6 9 0 15 58 86 39 45 132 130t115 108q12 16 7 16z"/><path id="v" class="s" d="M56 347q0 13 14 20h637q15-8 15-20 0-11-14-19l-318-1H72q-16 5-16 20zm0-194q0 15 16 20h636q14-10 14-20 0-13-15-20H70q-14 7-14 20z"/><path id="w" class="s" d="m213 578-13-5q-14-5-40-10t-58-7H83v46h19q47 2 87 15t56 24 28 22q2 3 12 3 9 0 17-6V361l1-300q7-7 12-9t24-4 62-2h26V0h-11q-21 3-159 3-136 0-157-3H88v46h64q16 0 25 1t16 3 8 2 6 5 6 4v517z"/><path id="x" class="s" d="M109 429q-27 0-43 18t-16 44q0 71 53 123t132 52q91 0 152-56t62-145q0-43-20-82t-48-68-80-74q-36-31-100-92l-59-56 76-1q157 0 167 5 7 2 24 89v3h40v-3q-1-3-13-91T421 3V0H50v31q0 7 6 15t30 35q29 32 50 56 9 10 34 37t34 37 29 33 28 34 23 30 21 32 15 29 13 32 7 30 3 33q0 63-34 109t-97 46q-33 0-58-17t-35-33-10-19q0-1 5-1 18 0 37-14t19-46q0-25-16-42t-45-18z"/><path id="y" class="s" d="M56 237v13l14 20h299v150l1 150q10 13 19 13 13 0 20-15V270h298q15-8 15-20t-15-20H409V-68q-8-14-18-14h-4q-12 0-18 14v298H70q-14 7-14 20z"/><path id="z" class="s" d="M50 252q0 115 67 221t169 168 204 63q90 0 143-51 9-10 15-17t8-10l1-3q3 0 27 26 7 6 15 14t16 16 10 11l15 15h6q14 0 14-7 0-4-32-137-36-139-36-140-2-5-5-6t-18-2h-16q-6 6-6 9 0 1 1 7t2 20 1 32q0 71-32 124t-109 54q-26 0-56-7t-72-24-83-56-73-93q-32-57-51-133t-19-124q0-114 76-164 48-34 118-34 91 0 162 68t94 148q4 13 6 15t16 2q20 0 20-9 0-5-1-9-29-107-124-184T319-22q-113 0-191 75T50 252z"/><path id="A" class="s" d="M347 338q-10 0-53 11t-63 11-34-4-23-10-12-11-7-11l-2-4q-3-3-15-3-21 0-21 8 0 5 3 14 13 39 43 67t66 34q12 2 17 2 25 0 45-17t38-33 38-17q22 0 44 33t23 33q1 1 15 1h13q6-6 6-8 0-4-5-14t-14-21-17-22-14-19l-7-9q-43-51-136-135T160 106l-12-12 15-1q22 0 64-11t63-11q38 0 70 19t42 50q4 9 7 11t15 2q19 0 19-10 0-5-1-9-17-62-66-103t-98-42q-26 0-46 17t-39 34-38 17q-44 0-79-60-6-8-17-8H41q-6 6-6 9 0 15 58 86 39 45 132 130t115 108q12 16 7 16z"/><path id="B" class="s" d="M56 347q0 13 14 20h637q15-8 15-20 0-11-14-19l-318-1H72q-16 5-16 20zm0-194q0 15 16 20h636q14-10 14-20 0-13-15-20H70q-14 7-14 20z"/><path id="C" class="s" d="m213 578-13-5q-14-5-40-10t-58-7H83v46h19q47 2 87 15t56 24 28 22q2 3 12 3 9 0 17-6V361l1-300q7-7 12-9t24-4 62-2h26V0h-11q-21 3-159 3-136 0-157-3H88v46h64q16 0 25 1t16 3 8 2 6 5 6 4v517z"/><path id="D" class="s" d="M56 237v13l14 20h299v150l1 150q10 13 19 13 13 0 20-15V270h298q15-8 15-20t-15-20H409V-68q-8-14-18-14h-4q-12 0-18 14v298H70q-14 7-14 20z"/><path id="E" class="s" d="M109 429q-27 0-43 18t-16 44q0 71 53 123t132 52q91 0 152-56t62-145q0-43-20-82t-48-68-80-74q-36-31-100-92l-59-56 76-1q157 0 167 5 7 2 24 89v3h40v-3q-1-3-13-91T421 3V0H50v31q0 7 6 15t30 35q29 32 50 56 9 10 34 37t34 37 29 33 28 34 23 30 21 32 15 29 13 32 7 30 3 33q0 63-34 109t-97 46q-33 0-58-17t-35-33-10-19q0-1 5-1 18 0 37-14t19-46q0-25-16-42t-45-18z"/><path id="F" class="s" d="M78 60q0 24 17 42t43 18q24 0 42-16t19-43q0-25-17-43T139 0 96 17 78 60z"/><path id="G" class="s" d="M21 287q1 6 3 16t12 38 20 47 33 37 46 17q36 0 60-18t30-34 6-21q0-2 1-2l11 11q61 64 139 64 54 0 87-27t34-79-38-157-38-127q0-26 17-26 6 0 9 1 29 5 52 38t35 80q2 8 20 8 20 0 20-8 0-1-4-15-8-29-22-57t-46-56-69-27q-47 0-68 27t-21 56q0 19 36 120t37 152q0 59-44 59h-5q-86 0-145-101l-7-12-33-134Q156 26 151 16q-13-27-43-27-13 0-21 6T76 7t-2 10q0 13 38 163t40 163q1 5 1 23 0 39-24 39-38 0-63-100-6-20-6-21-2-6-19-6H27q-6 6-6 9z"/><path id="H" class="s" d="M60 948q3 2 605 2h602l58-135q59-138 63-146h-40l-7 14q-21 41-56 78-50 48-111 77t-141 43-151 17-183 4H251l8-11q463-633 465-639 1-2 0-6-3-3-264-302L207-356q0-1 211-1h141q89 0 128-1 136 0 220 5t167 21 141 49 103 87q21 26 41 72h40q0-1-7-21t-25-65-31-84l-58-155-601-1q-602 0-605 2-6 2-6 9 0 2 2 6l533 610q0 1-33 45T463 366 333 544L62 909l-1 15q0 21 5 24z"/><path id="I" class="s" d="M184 600q0 24 19 42t44 19q18 0 30-12t13-30q0-23-20-42t-44-20q-15 0-28 10t-14 33zM21 287q0 8 9 31t24 51 44 51 60 22q39 0 65-23t27-62q0-17-14-56t-40-105-42-113q-5-22-5-32 0-25 17-25 9 0 19 3t23 14 27 35 25 59q3 12 5 14t17 2q20 0 20-10 0-8-9-31t-25-51-45-50-62-22q-32 0-59 21T74 74q0 17 5 32t43 114q38 101 44 121t7 39q0 24-17 24h-2q-30 0-55-33t-38-84q-1-1-2-3t-1-3-2-2-3-1-4 0-8 0H27q-6 6-6 9z"/><symbol id="a"><path d="M100 100v14H42.5v2H100v14h5v-30h-5zm10 0v30h5v-14h57.5v-2H115v-14h-5z"/></symbol><symbol id="b"><path d="M156 364h4v-2h-4zm8 0h4v-2h-4zm8 0h4v-2h-4zm8 0h4v-2h-4zm8 0h4v-2h-4zm8 0h4v-2h-4zm8 0h4v-2h-4z"/></symbol><symbol id="f"><circle r="4.25" cx="170" cy="437" stroke="#000" stroke-linecap="square" stroke-width="1.5" fill="none"/></symbol><symbol id="i"><path d="M45 306v2h55v-2H45z"/></symbol><symbol id="h"><path d="M45 321v2h130v-2H45z"/></symbol><symbol id="c"><text style="line-height:125%" y="452.362" x="100" letter-spacing="0" font-size="25" word-spacing="0" font-family="sans-serif"><tspan x="100" y="452.362">C<tspan font-size="65%" baseline-shift="sub">1</tspan></tspan></text></symbol><symbol id="d"><text style="line-height:125%" y="482.362" x="220" letter-spacing="0" font-size="25" word-spacing="0" font-family="sans-serif"><tspan x="220" y="482.362">C<tspan font-size="65%" baseline-shift="sub">2</tspan></tspan></text></symbol><symbol id="e"><text style="line-height:125%" y="462.362" x="420" letter-spacing="0" font-size="25" word-spacing="0" font-family="sans-serif"><tspan x="420" y="462.362">C<tspan font-size="65%" baseline-shift="sub">n</tspan></tspan></text></symbol><symbol id="g"><text style="line-height:125%" y="452.362" x="520" letter-spacing="0" font-size="25" word-spacing="0" font-family="sans-serif"><tspan x="520" y="452.362">C<tspan font-size="65%" baseline-shift="sub">z</tspan></tspan></text></symbol></defs><g transform="translate(0 -452)"><g transform="translate(-19)"><use xlink:href="#a" transform="translate(-5.5 400)"/><use xlink:href="#a" transform="translate(124 400)"/><use xlink:href="#b" transform="translate(141 152)"/><use xlink:href="#a" transform="translate(306 400)"/></g><use xlink:href="#c" transform="translate(-32.2 32.5)"/><use xlink:href="#d" transform="translate(-22.6 2.51)"/><use xlink:href="#e" transform="translate(-40.4 22.5)"/><use xlink:href="#a" transform="translate(501 400)"/><use xlink:href="#f" transform="translate(368 78.3)"/><use xlink:href="#f" transform="translate(508 78.3)"/><use xlink:href="#g" transform="translate(75.1 32.5)"/><g transform="translate(-7.68 210)"><g transform="translate(0 25)"><use xlink:href="#h" transform="translate(35 249)"/><use xlink:href="#h" transform="translate(34.7 379)"/><use xlink:href="#i" transform="translate(165 264)"/><use xlink:href="#i" transform="translate(165 394)"/><use xlink:href="#b" transform="translate(109 208)"/><use xlink:href="#b" transform="translate(109 338)"/><use xlink:href="#a" transform="rotate(90 -166 362)"/><use xlink:href="#a" transform="rotate(90 -102 426)"/><use xlink:href="#a" transform="rotate(90 -16 512)"/><use xlink:href="#h" transform="translate(272 249)"/><use xlink:href="#h" transform="translate(272 379)"/></g><use xlink:href="#c" transform="translate(-69.5 216)"/><use xlink:href="#d" transform="translate(-63.4 186)"/><use xlink:href="#e" transform="translate(-89.4 206)"/><g transform="translate(47.5 29)"><use xlink:href="#a" transform="rotate(90 97 622)"/><use xlink:href="#i" transform="translate(505 261)"/><use xlink:href="#i" transform="translate(505 389)"/><use xlink:href="#f" transform="translate(375 131)"/><use xlink:href="#f" transform="translate(375 259)"/></g><use xlink:href="#g" transform="translate(80.6 216)"/></g><g transform="translate(-893 -200)"><path d="M993 807h40.3v-1.86H993z"/><use class="f" xlink:href="#j" transform="matrix(.0316 0 0 -.031 993 814)" y="676" x="384"/><use class="f" xlink:href="#k" transform="matrix(.0316 0 0 -.031 995 837)"/><use class="f" xlink:href="#l" transform="matrix(.0223 0 0 -.0219 995 837)" y="-213" x="1018"/><use class="f" xlink:href="#m" transform="matrix(.0316 0 0 -.031 989 814)" x="1792"/><path d="M1080 807h41v-1.86h-41z"/><use class="f" xlink:href="#j" transform="matrix(.0316 0 0 -.031 1080 814)" y="676" x="396"/><use class="f" xlink:href="#k" transform="matrix(.0316 0 0 -.031 1090 837)"/><use class="f" xlink:href="#j" transform="matrix(.0223 0 0 -.0219 1090 837)" y="-213" x="1018"/><use class="f" xlink:href="#n" transform="matrix(.0316 0 0 -.031 989 814)" x="4612"/><path d="M1170 807h41v-1.86h-41z"/><use class="f" xlink:href="#j" transform="matrix(.0316 0 0 -.031 1170 814)" y="676" x="396"/><use class="f" xlink:href="#k" transform="matrix(.0316 0 0 -.031 1170 837)"/><use class="f" xlink:href="#o" transform="matrix(.0223 0 0 -.0219 1170 837)" y="-213" x="1018"/><use class="f" xlink:href="#n" transform="matrix(.0316 0 0 -.031 989 814)" x="7154"/><use class="f" xlink:href="#p" transform="matrix(.0316 0 0 -.031 989 814)" x="7937"/><use class="f" xlink:href="#p" transform="matrix(.0316 0 0 -.031 989 814)" x="8387"/><use class="f" xlink:href="#p" transform="matrix(.0316 0 0 -.031 989 814)" x="8836"/><use class="f" xlink:href="#n" transform="matrix(.0316 0 0 -.031 989 814)" x="9286"/><path d="M1310 807h43.2v-1.86H1310z"/><use class="f" xlink:href="#j" transform="matrix(.0316 0 0 -.031 1310 814)" y="676" x="431"/><use class="f" xlink:href="#k" transform="matrix(.0316 0 0 -.031 1310 837)"/><use class="f" xlink:href="#q" transform="matrix(.0223 0 0 -.0219 1310 837)" y="-213" x="1018"/><use class="f" xlink:href="#m" transform="matrix(.0316 0 0 -.031 989 814)" x="11955"/><use class="f" xlink:href="#r" transform="matrix(.0316 0 0 -.031 1400 814)"/><use class="f" xlink:href="#s" transform="matrix(.0223 0 0 -.0219 1410 849)"/><use class="f" xlink:href="#m" transform="matrix(.0223 0 0 -.0219 1410 849)" x="350"/><use class="f" xlink:href="#j" transform="matrix(.0223 0 0 -.0219 1410 849)" x="1133"/><use class="f" xlink:href="#q" transform="matrix(.0223 0 0 -.0219 1400 814)" y="1640" x="722"/><path d="M1460 807h37.5v-1.86H1460z"/><use class="f" xlink:href="#j" transform="matrix(.0316 0 0 -.031 1460 814)" y="676" x="341"/><use class="f" xlink:href="#k" transform="matrix(.0316 0 0 -.031 1460 837)"/><use class="f" xlink:href="#s" transform="matrix(.0223 0 0 -.0219 1460 837)" y="-213" x="1018"/></g><g transform="translate(-893 -207)"><use class="f" xlink:href="#t" transform="matrix(.0316 0 0 -.031 1140 922)"/><use class="f" xlink:href="#u" transform="matrix(.0223 0 0 -.0219 1140 922)" y="-213" x="1018"/><use class="f" xlink:href="#v" transform="matrix(.0316 0 0 -.031 1140 922)" x="1432"/><path d="M1230 915h117v-1.86h-117z"/><use class="f" xlink:href="#t" transform="matrix(.0316 0 0 -.031 1250 901)"/><use class="f" xlink:href="#w" transform="matrix(.0223 0 0 -.0219 1250 901)" y="-213" x="1018"/><use class="f" xlink:href="#t" transform="matrix(.0316 0 0 -.031 1280 901)"/><use class="f" xlink:href="#x" transform="matrix(.0223 0 0 -.0219 1280 901)" y="-213" x="1018"/><use class="f" xlink:href="#t" transform="matrix(.0316 0 0 -.031 1230 945)"/><use class="f" xlink:href="#w" transform="matrix(.0223 0 0 -.0219 1230 945)" y="-213" x="1018"/><use class="f" xlink:href="#y" transform="matrix(.0316 0 0 -.031 1230 945)" x="1399"/><use class="f" xlink:href="#t" transform="matrix(.0316 0 0 -.031 1300 945)"/><use class="f" xlink:href="#x" transform="matrix(.0223 0 0 -.0219 1300 945)" y="-213" x="1018"/></g><g transform="translate(-893 -22.6)"><use class="f" xlink:href="#z" transform="matrix(.0316 0 0 -.031 1020 1030)"/><use class="f" xlink:href="#A" transform="matrix(.0223 0 0 -.0219 1020 1030)" y="-213" x="1018"/><use class="f" xlink:href="#B" transform="matrix(.0316 0 0 -.031 1020 1030)" x="1432"/><use class="f" xlink:href="#z" transform="matrix(.0316 0 0 -.031 1100 1030)"/><use class="f" xlink:href="#C" transform="matrix(.0223 0 0 -.0219 1100 1030)" y="-213" x="1018"/><use class="f" xlink:href="#D" transform="matrix(.0316 0 0 -.031 1020 1030)" x="3892"/><use class="f" xlink:href="#z" transform="matrix(.0316 0 0 -.031 1170 1030)"/><use class="f" xlink:href="#E" transform="matrix(.0223 0 0 -.0219 1170 1030)" y="-213" x="1018"/><use class="f" xlink:href="#D" transform="matrix(.0316 0 0 -.031 1020 1030)" x="6074"/><use class="f" xlink:href="#F" transform="matrix(.0316 0 0 -.031 1020 1030)" x="6857"/><use class="f" xlink:href="#F" transform="matrix(.0316 0 0 -.031 1020 1030)" x="7307"/><use class="f" xlink:href="#F" transform="matrix(.0316 0 0 -.031 1020 1030)" x="7756"/><use class="f" xlink:href="#D" transform="matrix(.0316 0 0 -.031 1020 1030)" x="8206"/><use class="f" xlink:href="#z" transform="matrix(.0316 0 0 -.031 1300 1030)"/><use class="f" xlink:href="#G" transform="matrix(.0223 0 0 -.0219 1300 1030)" y="-213" x="1018"/><use class="f" xlink:href="#B" transform="matrix(.0316 0 0 -.031 1020 1030)" x="10515"/><use class="f" xlink:href="#H" transform="matrix(.0316 0 0 -.031 1380 1030)"/><use class="f" xlink:href="#I" transform="matrix(.0223 0 0 -.0219 1390 1060)"/><use class="f" xlink:href="#B" transform="matrix(.0223 0 0 -.0219 1390 1060)" x="350"/><use class="f" xlink:href="#C" transform="matrix(.0223 0 0 -.0219 1390 1060)" x="1133"/><use class="f" xlink:href="#G" transform="matrix(.0223 0 0 -.0219 1380 1030)" y="1640" x="722"/><use class="f" xlink:href="#z" transform="matrix(.0316 0 0 -.031 1440 1030)"/><use class="f" xlink:href="#I" transform="matrix(.0223 0 0 -.0219 1440 1030)" y="-213" x="1018"/></g></g></svg>